<?xml version="1.0" standalone="no"?>
<!DOCTYPE svg PUBLIC "-//W3C//DTD SVG 20010904//EN"
 "http://www.w3.org/TR/2001/REC-SVG-20010904/DTD/svg10.dtd">
<svg version="1.0" xmlns="http://www.w3.org/2000/svg"
 width="1300.000000pt" height="1500.000000pt" viewBox="0 0 1300.000000 1500.000000"
 preserveAspectRatio="xMidYMid meet">

<g transform="translate(0.000000,1500.000000) scale(0.100000,-0.100000)"
fill="#000000" stroke="none">
<path d="M6661 14793 c-11 -7 -24 -13 -28 -11 -11 2 -106 -13 -116 -19 -4 -3
-3 -11 4 -19 9 -11 15 -11 33 -2 11 7 29 11 40 9 11 -1 16 2 12 8 -4 6 -2 11
3 11 6 0 11 -4 11 -8 0 -4 44 -9 98 -10 53 -2 111 -5 127 -7 17 -2 71 -7 120
-10 94 -6 110 -8 135 -18 36 -13 108 -28 137 -29 18 -1 34 -7 37 -14 4 -9 15
-12 36 -8 19 4 30 2 30 -5 0 -6 13 -11 29 -11 17 0 33 -5 36 -10 5 -8 11 -7
21 1 9 7 14 8 12 3 -3 -9 4 -14 23 -14 6 0 4 7 -5 15 -8 8 -21 15 -30 15 -8 0
-17 4 -21 10 -3 5 -12 7 -21 3 -9 -3 -14 0 -12 8 2 9 -6 14 -20 14 -13 0 -30
9 -37 18 -9 12 -15 15 -20 7 -5 -8 -12 -7 -23 3 -24 20 -94 39 -227 61 -53 9
-84 10 -92 4 -9 -7 -15 -5 -19 6 -7 18 -54 22 -71 5 -7 -7 -22 -9 -40 -4 -48
14 -141 13 -162 -2z"/>
<path d="M6470 14752 c0 -4 -9 -8 -21 -9 -29 -3 -103 -40 -124 -63 -10 -11
-25 -20 -34 -20 -9 0 -25 -14 -36 -30 -11 -16 -24 -30 -28 -30 -5 0 -36 -26
-70 -59 -34 -32 -70 -62 -79 -67 -34 -18 -126 -154 -157 -231 -18 -43 -36 -88
-42 -101 -9 -23 -9 -23 -57 18 -26 23 -87 61 -137 85 -152 72 -245 94 -316 75
-24 -7 -79 -12 -123 -12 -44 1 -88 -4 -99 -10 -14 -7 -17 -7 -13 1 4 6 3 11
-3 11 -5 0 -15 -8 -20 -17 -10 -17 -10 -17 -11 0 0 18 -15 23 -25 7 -3 -5 -13
-6 -22 -3 -12 5 -14 3 -8 -8 7 -11 6 -12 -6 -2 -15 12 -72 7 -154 -13 -37 -9
-176 -63 -190 -74 -5 -5 -37 -23 -70 -41 -73 -39 -122 -76 -195 -145 -30 -29
-68 -64 -83 -79 -21 -19 -27 -31 -22 -48 6 -18 5 -20 -6 -9 -11 10 -20 5 -52
-30 -21 -23 -33 -44 -28 -48 6 -3 2 -12 -9 -20 -11 -8 -20 -24 -20 -35 0 -21
2 -19 90 87 63 77 124 138 174 175 27 19 54 39 60 44 33 27 120 79 132 79 8 0
14 5 14 10 0 6 6 10 13 10 8 0 42 14 76 31 34 17 67 32 74 33 7 2 19 6 27 9
43 16 152 32 193 29 29 -3 19 -16 -38 -50 -116 -69 -245 -184 -398 -354 -52
-57 -92 -92 -119 -102 -21 -9 -51 -28 -64 -41 -14 -14 -37 -33 -51 -42 -56
-37 -233 -205 -233 -222 0 -16 -59 -73 -69 -66 -11 6 -20 -12 -42 -82 -7 -24
-15 -43 -20 -43 -4 0 -14 -17 -23 -37 -21 -49 -38 -79 -107 -183 -63 -94 -112
-190 -154 -295 -15 -38 -71 -155 -124 -260 -77 -152 -111 -234 -170 -410 -41
-121 -89 -257 -107 -301 -33 -83 -64 -225 -64 -300 0 -22 -6 -81 -14 -130 -47
-293 -54 -527 -24 -829 21 -217 37 -303 74 -405 66 -183 184 -360 240 -360 29
0 30 14 4 47 -11 15 -20 41 -20 60 0 19 -8 45 -18 58 -24 30 -45 151 -40 230
l3 60 13 -45 c7 -25 31 -110 53 -190 23 -80 45 -170 49 -200 9 -66 50 -164 98
-240 19 -30 119 -138 221 -240 234 -233 271 -253 504 -276 78 -8 101 4 112 62
8 43 20 37 29 -13 7 -46 42 -106 56 -98 6 4 8 11 5 16 -4 5 -2 9 3 9 6 0 8 10
4 22 -6 26 -33 59 -43 53 -4 -3 -9 4 -12 15 -3 11 -1 23 4 26 5 3 9 10 9 16 0
7 -6 6 -15 -2 -18 -15 -20 1 -3 18 9 9 7 13 -8 18 -10 4 -23 12 -27 18 -4 6
-5 -2 -1 -19 8 -37 -4 -27 -27 23 -17 36 -17 36 -18 10 -3 -90 -74 42 -100
184 -6 29 -22 109 -36 178 -24 120 -32 293 -12 280 11 -7 49 60 43 76 -3 7 -1
16 4 19 6 4 10 1 10 -5 0 -18 100 70 110 96 5 12 29 36 54 54 25 17 46 35 46
40 0 5 11 15 24 22 33 18 100 73 173 142 l63 59 112 -7 c62 -5 129 -9 149 -11
51 -5 308 -54 342 -65 21 -7 39 -4 80 15 61 29 84 31 108 9 20 -18 39 -11 102
39 37 30 44 50 28 75 -7 12 -14 11 -39 -2 -40 -21 -45 -20 -37 4 5 15 0 23
-22 32 -15 6 -32 10 -36 10 -4 -1 -11 6 -14 15 -7 17 -88 103 -98 103 -3 0
-49 12 -102 26 -148 39 -202 51 -267 59 -92 11 -91 6 -36 113 82 164 123 280
163 467 22 102 32 162 63 355 2 14 8 93 14 175 6 83 14 166 19 185 13 52 52
202 58 223 5 21 21 22 42 3 9 -8 44 -28 77 -45 53 -27 65 -29 92 -20 42 14 46
34 14 60 l-27 21 65 -5 c36 -2 75 -7 87 -12 18 -6 25 -2 35 20 9 21 9 31 0 46
-14 23 -3 25 24 4 25 -19 68 -19 84 0 7 8 26 21 42 30 26 13 29 13 24 0 -12
-31 37 -46 153 -49 60 -1 113 -5 118 -10 13 -13 16 -329 4 -515 -23 -344 -10
-705 29 -836 5 -16 11 -43 13 -60 11 -70 20 -111 28 -121 5 -6 11 -24 13 -40
2 -16 7 -38 11 -49 4 -11 23 -60 42 -109 103 -273 212 -380 483 -478 47 -17
94 -37 105 -45 11 -7 36 -13 56 -13 21 0 39 -5 41 -11 3 -8 19 -8 58 1 30 6
60 11 67 12 6 1 9 7 6 14 -2 7 5 18 17 24 11 6 18 16 14 22 -4 7 -9 6 -15 -3
-7 -11 -9 -10 -9 5 0 13 -4 16 -17 11 -32 -14 -81 -5 -145 25 -35 17 -69 30
-76 30 -35 0 -232 159 -232 187 0 7 -13 35 -30 61 -16 27 -30 55 -30 61 0 7
-9 31 -20 54 -12 23 -25 58 -30 77 -5 19 -16 60 -25 90 -9 30 -17 64 -16 75 0
11 -6 42 -14 70 -8 27 -13 57 -12 65 2 20 -9 120 -35 300 -20 140 -27 417 -12
442 4 6 26 -49 50 -121 97 -294 227 -530 381 -691 l43 -46 -25 -52 c-14 -28
-25 -56 -25 -61 0 -5 -7 -22 -15 -37 -13 -26 -13 -30 0 -40 8 -6 15 -16 15
-23 0 -27 18 -6 58 69 24 44 48 80 53 80 5 0 7 -16 4 -36 -6 -51 28 -84 89
-84 45 0 58 -8 171 -104 17 -14 35 -25 41 -26 17 0 47 -38 39 -49 -3 -6 -1
-11 4 -11 6 0 11 -4 11 -9 0 -15 -49 -65 -56 -58 -8 8 -50 -44 -46 -56 4 -13
-21 -77 -30 -77 -4 0 -8 -4 -8 -10 0 -5 9 -10 21 -10 11 0 17 5 14 10 -3 6 -1
10 4 10 6 0 11 -7 11 -15 0 -8 3 -14 8 -13 29 6 56 -35 30 -45 -7 -3 -3 -6 9
-6 12 -1 42 15 67 34 26 19 51 35 56 35 6 0 10 7 10 15 0 8 7 15 15 15 8 0 15
5 15 10 0 15 -59 12 -74 -3 -16 -15 -94 -43 -101 -35 -11 10 29 84 72 135 43
51 47 53 67 39 78 -55 291 -137 436 -167 25 -5 95 -33 155 -63 199 -97 416
-166 522 -166 124 0 344 -114 438 -227 27 -32 62 -71 78 -87 46 -47 61 -84 47
-112 -7 -12 -10 -30 -7 -38 7 -18 52 -22 62 -6 3 6 12 10 19 10 13 0 20 -28
47 -197 16 -106 18 -111 40 -118 30 -10 64 18 93 76 49 96 146 234 206 293 34
32 77 83 97 113 19 29 45 59 56 65 12 6 53 41 92 78 118 111 169 127 350 110
66 -7 130 -16 143 -21 13 -5 40 -6 61 -3 30 5 51 -1 107 -29 38 -19 90 -53
116 -76 25 -23 49 -41 52 -41 14 0 56 45 56 60 0 10 13 44 29 76 39 77 80 179
93 229 6 22 18 47 28 56 42 37 82 160 139 427 25 114 40 317 41 547 l1 150 21
-45 c26 -60 58 -180 68 -258 13 -105 43 -111 55 -12 8 72 8 127 -4 350 -10
187 -43 388 -91 570 -12 43 -20 84 -18 90 2 7 21 -18 42 -54 21 -36 51 -79 67
-95 16 -17 31 -43 35 -58 3 -15 16 -53 29 -83 12 -30 28 -71 34 -90 6 -19 22
-48 35 -65 22 -27 25 -28 32 -12 3 10 2 23 -5 30 -6 6 -11 29 -11 52 0 94 -95
386 -243 746 -99 240 -142 328 -242 493 -40 67 -91 153 -115 191 -43 73 -99
156 -110 165 -4 3 -20 25 -37 50 -17 25 -42 51 -55 58 -13 7 -37 34 -53 59
-30 48 -75 94 -307 315 -190 181 -354 324 -422 369 -82 53 -306 163 -389 189
-65 21 -117 21 -117 0 0 -14 -51 8 -73 31 -10 10 -28 19 -40 19 -13 0 -27 4
-33 9 -28 26 -249 113 -379 150 -157 44 -383 111 -424 125 -96 35 -230 66
-303 71 -42 2 -116 12 -164 20 -48 8 -118 15 -156 15 -38 0 -112 5 -166 11
-115 14 -108 13 -152 3 -19 -5 -105 -7 -190 -5 -121 2 -181 -2 -275 -18 -66
-11 -158 -23 -205 -27 -47 -3 -116 -12 -153 -20 -38 -8 -84 -14 -102 -14 -46
0 -172 -42 -248 -82 -34 -18 -90 -59 -124 -92 -35 -32 -63 -53 -63 -47 0 20
39 89 69 123 16 18 38 53 50 78 25 54 165 172 231 195 46 16 70 32 70 46 0 5
-7 9 -15 9 -8 0 -15 -4 -15 -8z m-1117 -561 c20 -10 53 -22 72 -25 85 -16 10
-49 -130 -56 -108 -5 -111 -6 -185 -50 -41 -24 -100 -63 -130 -86 -30 -23 -92
-60 -137 -83 -131 -65 -148 -53 -52 38 33 32 71 64 84 71 12 6 34 23 48 35 66
62 186 125 297 156 83 23 88 23 133 0z m3745 -615 c-2 -25 -7 -31 -27 -31 -27
0 -47 25 -38 48 4 10 17 15 37 15 29 -1 31 -4 28 -32z m-2168 -1084 c0 -5 -7
-17 -15 -28 -13 -17 -14 -17 -15 -1 0 18 -20 25 -20 7 0 -5 -5 -10 -11 -10
-20 0 -3 24 22 31 34 10 39 10 39 1z m1942 -184 c-7 -7 -12 -20 -12 -30 0 -22
-13 -23 -30 -3 -8 10 -9 15 -2 15 6 0 9 7 6 15 -5 11 1 15 22 15 22 0 25 -3
16 -12z m1478 -228 c0 -5 -7 -7 -15 -4 -8 4 -15 8 -15 10 0 2 7 4 15 4 8 0 15
-4 15 -10z m-960 -767 c0 -26 0 -26 -21 -7 -20 18 -18 23 19 33 1 1 2 -11 2
-26z m83 -59 c10 -10 -12 -44 -28 -44 -21 0 -28 19 -15 35 13 16 32 19 43 9z
m-139 -53 c13 -14 14 -20 4 -28 -40 -30 -63 -18 -47 25 10 27 21 28 43 3z"/>
<path d="M4185 13720 c-5 -8 -10 -19 -11 -25 0 -5 -2 -16 -2 -23 -1 -7 -6 -10
-12 -7 -5 3 -10 -1 -10 -9 0 -8 -6 -21 -14 -29 -8 -7 -19 -31 -25 -52 -10 -36
-9 -37 7 -19 10 10 24 35 32 54 7 19 22 47 32 63 11 15 18 35 16 45 -3 15 -5
15 -13 2z"/>
<path d="M4081 13486 c-7 -8 -8 -17 -3 -20 6 -3 12 3 15 14 6 24 4 25 -12 6z"/>
<path d="M6095 12161 c-3 -5 -1 -12 5 -16 5 -3 10 1 10 9 0 18 -6 21 -15 7z"/>
<path d="M5950 12145 c-7 -9 -11 -17 -9 -20 3 -2 10 5 17 15 14 24 10 26 -8 5z"/>
<path d="M5739 12127 c7 -7 14 -8 21 -1 6 6 2 10 -12 11 -16 2 -18 -1 -9 -10z"/>
<path d="M6065 12111 c-3 -5 -1 -12 5 -16 5 -3 10 1 10 9 0 18 -6 21 -15 7z"/>
<path d="M5916 12078 c3 -4 11 -5 19 -1 21 7 19 12 -4 10 -11 0 -18 -5 -15 -9z"/>
<path d="M6104 12056 c-5 -13 -3 -21 4 -24 7 -2 12 -12 12 -23 0 -11 7 -22 15
-26 23 -8 31 5 12 20 -10 6 -21 26 -26 42 -8 27 -9 28 -17 11z"/>
<path d="M5660 11980 c0 -5 4 -10 9 -10 6 0 13 5 16 10 3 6 -1 10 -9 10 -9 0
-16 -4 -16 -10z"/>
<path d="M6110 11952 c0 -5 7 -17 15 -28 14 -18 14 -18 15 9 0 17 -5 27 -15
27 -8 0 -15 -4 -15 -8z"/>
<path d="M6160 11850 c0 -5 5 -10 11 -10 5 0 7 5 4 10 -3 6 -8 10 -11 10 -2 0
-4 -4 -4 -10z"/>
<path d="M6665 10800 c-3 -5 -1 -10 4 -10 6 0 11 5 11 10 0 6 -2 10 -4 10 -3
0 -8 -4 -11 -10z"/>
<path d="M6728 10723 c7 -3 16 -2 19 1 4 3 -2 6 -13 5 -11 0 -14 -3 -6 -6z"/>
<path d="M6830 10640 c0 -5 5 -10 10 -10 6 0 10 5 10 10 0 6 -4 10 -10 10 -5
0 -10 -4 -10 -10z"/>
<path d="M6900 10576 c0 -2 7 -9 15 -16 13 -11 14 -10 9 4 -5 14 -24 23 -24
12z"/>
<path d="M7417 10137 c-3 -8 1 -14 9 -14 8 0 14 6 14 14 0 7 -4 13 -9 13 -5 0
-11 -6 -14 -13z"/>
<path d="M7585 10141 c-3 -5 0 -21 6 -35 10 -21 14 -23 30 -13 11 7 19 15 19
18 0 12 -49 39 -55 30z"/>
<path d="M7728 10118 c-6 -13 13 -48 26 -48 11 0 7 25 -7 44 -11 15 -15 16
-19 4z"/>
<path d="M7311 10046 c-9 -11 -8 -18 4 -30 22 -22 25 -20 25 14 0 32 -11 38
-29 16z"/>
<path d="M7830 9992 c-19 -2 -40 -8 -47 -13 -6 -6 -27 -11 -45 -11 -18 0 -37
-3 -43 -7 -5 -3 -21 -7 -34 -9 -13 -2 -33 -10 -45 -18 -13 -8 -25 -11 -29 -8
-4 4 -17 0 -31 -9 -13 -9 -35 -18 -48 -21 -74 -14 -194 -78 -182 -97 3 -5 -2
-9 -10 -9 -9 0 -16 -4 -16 -10 0 -5 -7 -7 -15 -4 -15 6 -45 -12 -45 -27 0 -4
7 -15 16 -24 15 -15 15 -17 -5 -22 -11 -3 -18 -9 -15 -14 3 -5 -9 -9 -25 -9
-17 0 -31 -4 -31 -10 0 -5 9 -10 20 -10 38 0 14 -32 -45 -58 -14 -7 -23 -5
-32 7 -15 22 -26 8 -27 -34 -1 -31 -3 -33 -14 -18 -10 14 -16 15 -30 7 -20
-13 -29 -44 -12 -44 6 0 8 5 4 12 -5 7 -3 8 5 3 16 -9 -36 -66 -54 -59 -7 3
-19 -3 -26 -14 -8 -10 -21 -21 -29 -25 -12 -4 -12 -6 2 -6 9 -1 24 7 34 16 16
17 17 16 12 -24 l-6 -41 42 4 c22 2 51 6 63 9 25 6 39 -10 25 -28 -13 -16 -35
-118 -31 -142 4 -16 11 -19 44 -17 56 4 105 -28 105 -67 0 -29 -6 -35 -78 -89
-30 -22 -20 -56 14 -49 39 7 50 -17 24 -53 -13 -19 -16 -28 -7 -24 21 8 40
-21 28 -44 -7 -14 -5 -26 10 -48 10 -16 19 -36 19 -45 0 -44 85 -39 480 27 52
9 111 23 130 31 51 22 122 43 145 43 11 0 35 13 52 28 25 20 30 31 23 42 -8
12 -13 13 -30 3 -27 -17 -27 -17 -61 19 -36 40 -36 51 -3 77 27 21 24 26 -21
33 -11 2 -21 10 -23 19 -3 18 24 29 74 29 31 0 43 17 44 58 0 18 -84 16 -100
-3 -20 -24 -50 -19 -50 9 0 16 -7 27 -20 31 -21 7 -27 30 -10 40 6 3 10 15 10
25 0 10 19 42 43 72 61 74 63 85 25 106 -29 16 -130 99 -135 111 -2 3 174 6
390 6 l392 0 10 -22 c5 -13 13 -23 18 -23 4 0 5 5 2 10 -10 16 12 11 30 -6 9
-9 19 -13 23 -10 4 4 -4 16 -18 28 -14 11 -20 17 -13 14 13 -7 28 28 18 44 -3
5 0 18 7 30 18 28 3 49 -64 85 -30 17 -63 36 -72 44 -18 15 -152 77 -197 91
-15 4 -42 15 -60 23 -19 8 -78 32 -132 52 -85 32 -110 37 -190 38 -51 1 -108
1 -127 -1z m-456 -617 c3 -8 12 -15 20 -15 19 0 27 -24 20 -60 -10 -47 -25
-53 -78 -31 -50 22 -59 44 -25 62 21 11 38 0 39 -23 0 -5 7 -8 15 -8 21 0 19
29 -2 37 -35 13 -46 53 -14 53 10 0 21 -7 25 -15z m440 -36 c22 -10 25 -17 22
-58 -2 -38 -6 -46 -22 -46 -12 0 -20 8 -22 23 -2 12 -10 22 -18 22 -17 0 -18
9 -4 44 11 30 11 30 44 15z m-25 -198 c26 -14 57 -89 45 -108 -14 -23 -65 -25
-87 -5 -18 16 -20 16 -37 -6 -10 -12 -23 -22 -28 -22 -6 0 -12 -5 -14 -11 -2
-6 -16 -13 -30 -14 -19 -2 -28 2 -32 18 -8 31 1 37 50 32 35 -3 43 -1 35 9
-17 20 -6 64 23 91 29 27 47 31 75 16z"/>
<path d="M5353 9886 c1 -26 5 -32 15 -24 6 6 12 7 12 4 0 -4 6 -1 14 6 13 11
12 15 -7 30 -31 25 -37 22 -34 -16z"/>
<path d="M5184 9808 c-3 -4 -16 -5 -30 -2 -37 9 -29 -3 18 -27 29 -15 46 -19
57 -12 9 5 30 9 46 7 112 -8 120 -8 117 7 -6 25 -20 33 -38 19 -14 -12 -17
-12 -26 3 -8 14 -21 17 -74 15 -36 -1 -68 -6 -70 -10z"/>
<path d="M5444 9788 c-3 -4 0 -9 5 -9 6 -1 16 -2 21 -3 6 0 10 -4 10 -8 0 -5
0 -12 0 -18 0 -5 -7 -10 -15 -10 -8 0 -15 5 -15 10 0 6 -4 10 -10 10 -19 0
-10 -21 13 -29 31 -12 60 5 52 30 -4 11 -2 19 4 19 6 0 11 3 11 8 0 10 -70 11
-76 0z"/>
<path d="M4360 9781 c0 -6 5 -13 10 -16 6 -3 10 1 10 9 0 9 -4 16 -10 16 -5 0
-10 -4 -10 -9z"/>
<path d="M4387 9699 c4 -13 8 -18 11 -10 2 7 -1 18 -6 23 -8 8 -9 4 -5 -13z"/>
<path d="M7166 9647 c3 -10 9 -15 12 -12 3 3 0 11 -7 18 -10 9 -11 8 -5 -6z"/>
<path d="M8711 9624 c0 -11 3 -14 6 -6 3 7 2 16 -1 19 -3 4 -6 -2 -5 -13z"/>
<path d="M4975 9599 c-116 -29 -216 -95 -315 -210 -35 -40 -63 -85 -70 -108
-5 -21 -17 -44 -25 -51 -12 -10 -12 -16 -3 -34 7 -11 11 -24 10 -29 -3 -9 34
0 102 25 28 10 61 18 73 18 12 0 46 10 75 21 49 20 290 58 366 59 44 0 43 -29
-2 -67 -45 -38 -64 -71 -68 -117 -3 -38 -2 -39 40 -53 49 -17 75 -56 70 -105
-3 -26 -12 -36 -58 -61 -69 -37 -66 -32 -46 -62 10 -15 26 -25 41 -25 18 0 25
-5 25 -19 0 -11 -4 -23 -10 -26 -17 -10 -11 -25 10 -25 13 0 20 -7 20 -19 0
-10 15 -45 33 -77 l33 -59 94 1 c138 2 261 20 435 65 47 12 52 17 78 69 29 58
34 85 17 95 -13 8 -13 45 1 45 5 0 7 5 4 10 -3 6 -14 10 -25 10 -18 0 -34 23
-23 34 4 3 16 6 27 6 34 0 48 14 41 41 -5 21 -12 24 -56 25 -27 0 -54 5 -60
11 -16 16 27 61 72 75 37 10 40 14 34 37 -3 14 -9 40 -13 58 -4 18 -24 50 -44
72 -29 30 -34 40 -23 45 8 3 21 3 28 0 8 -3 24 3 36 13 l22 18 -35 35 c-27 25
-39 31 -48 22 -17 -17 -51 4 -43 29 4 11 2 19 -5 19 -7 0 -23 9 -37 20 -14 11
-32 20 -40 20 -8 0 -26 9 -40 20 -14 11 -37 20 -51 20 -14 0 -30 6 -36 13 -29
34 -199 82 -364 102 -150 18 -148 18 -247 -6z m686 -156 c12 -15 12 -16 -4
-10 -10 4 -23 7 -28 7 -5 0 -9 5 -9 10 0 16 26 12 41 -7z m-293 -302 c28 -24
28 -39 -2 -75 l-23 -30 -36 17 c-48 23 -52 33 -22 53 14 9 25 25 25 35 0 24
28 24 58 0z m92 -51 c0 -5 -2 -10 -4 -10 -3 0 -8 5 -11 10 -3 6 -1 10 4 10 6
0 11 -4 11 -10z m265 0 c22 -8 24 -13 15 -29 -5 -11 -10 -31 -10 -45 0 -32
-15 -34 -31 -3 -7 12 -18 25 -25 30 -14 8 -8 37 10 49 14 10 10 10 41 -2z m33
-196 c47 -40 53 -65 20 -81 -87 -40 -108 -46 -133 -35 -33 15 -43 57 -20 82
10 11 24 20 32 20 7 0 13 5 13 11 0 11 28 38 41 39 3 0 24 -16 47 -36z m-265
-128 c3 3 27 6 54 7 36 1 48 -3 48 -14 0 -14 -8 -15 -37 -4 -11 4 -18 3 -18
-4 0 -6 -4 -11 -10 -11 -5 0 -7 7 -4 15 5 12 2 14 -17 6 -22 -8 -69 1 -69 13
0 3 7 2 17 -1 12 -5 14 -3 9 8 -4 8 -1 6 7 -3 8 -10 17 -15 20 -12z"/>
<path d="M8690 9531 c0 -5 -19 -12 -42 -16 -24 -4 -36 -10 -27 -12 14 -3 28
-30 29 -55 0 -4 -10 -9 -22 -11 -13 -2 -6 -4 14 -3 24 1 38 6 38 14 0 7 -4 10
-10 7 -6 -3 -7 1 -4 9 3 9 10 13 15 10 5 -3 9 -2 10 3 0 4 3 20 5 36 3 15 2
27 -1 27 -3 0 -5 -4 -5 -9z m-5 -31 c3 -5 2 -10 -4 -10 -5 0 -13 5 -16 10 -3
6 -2 10 4 10 5 0 13 -4 16 -10z"/>
<path d="M10220 9454 c-19 -9 -51 -29 -71 -45 -20 -15 -48 -33 -63 -38 -14 -6
-26 -17 -26 -26 0 -8 -9 -15 -20 -15 -11 0 -20 -4 -20 -10 0 -5 -8 -18 -17
-28 -43 -44 -73 -83 -73 -92 0 -6 -9 -28 -19 -49 -11 -21 -34 -91 -51 -156
-26 -96 -29 -119 -18 -126 21 -14 25 -11 50 34 13 23 28 42 33 43 6 0 18 4 29
9 20 9 56 -2 144 -41 29 -13 59 -24 67 -24 7 0 17 -5 21 -11 3 -6 17 -9 29 -6
17 3 27 -3 36 -20 7 -13 19 -21 26 -19 8 3 22 0 33 -6 23 -14 25 -12 34 27 4
19 3 25 -2 16 -7 -9 -12 -10 -16 -2 -4 6 0 13 8 16 9 3 22 7 30 9 7 3 16 22
20 43 3 21 9 52 13 68 4 17 8 64 8 106 0 69 -3 79 -30 115 -40 53 -66 73 -92
74 -25 0 -73 37 -73 56 0 7 21 20 48 29 101 36 107 40 78 64 -23 19 -78 21
-116 5z m58 -250 c46 -32 59 -105 37 -204 -3 -14 -8 -42 -11 -62 -5 -32 -10
-38 -30 -38 -13 0 -23 3 -23 8 3 19 -2 32 -13 32 -21 1 -71 47 -64 58 4 6 13
9 20 6 18 -7 28 34 15 59 -8 13 -8 22 0 30 6 6 11 27 11 47 0 77 16 94 58 64z"/>
<path d="M6960 9409 c0 -5 5 -7 10 -4 6 3 10 8 10 11 0 2 -4 4 -10 4 -5 0 -10
-5 -10 -11z"/>
<path d="M6940 9390 c0 -5 5 -10 11 -10 5 0 7 5 4 10 -3 6 -8 10 -11 10 -2 0
-4 -4 -4 -10z"/>
<path d="M8651 9366 c-9 -11 -9 -16 0 -22 7 -4 9 -3 5 4 -3 5 0 12 6 15 7 2
10 7 7 11 -3 4 -12 0 -18 -8z"/>
<path d="M4658 8932 c-6 -20 18 -60 28 -49 4 4 1 13 -6 22 -7 8 -10 22 -6 30
3 8 2 15 -3 15 -5 0 -11 -8 -13 -18z"/>
<path d="M6130 8610 c0 -42 64 -130 94 -130 6 0 21 8 34 18 l23 18 -31 22
c-17 13 -41 41 -55 62 -32 50 -65 55 -65 10z"/>
<path d="M10648 8620 c-10 -9 -15 -19 -12 -23 8 -8 37 20 32 32 -2 4 -11 1
-20 -9z"/>
<path d="M9760 8334 c0 -7 7 -15 16 -18 8 -3 12 -2 9 4 -3 6 -1 10 4 10 6 0
11 -4 11 -10 0 -5 5 -10 10 -10 6 0 10 8 10 19 0 14 -7 18 -30 17 -16 -1 -30
-6 -30 -12z"/>
<path d="M6990 8092 c0 -5 -6 -9 -12 -10 -75 -10 -89 -15 -86 -31 4 -16 11
-16 68 -4 30 6 70 53 45 53 -8 0 -15 -4 -15 -8z"/>
<path d="M6350 8020 c-13 -24 6 -35 73 -42 40 -5 49 -3 58 14 12 22 -1 37 -31
38 -8 0 -26 3 -39 7 -19 5 -22 3 -16 -8 6 -11 5 -12 -6 -1 -18 17 -27 15 -39
-8z"/>
<path d="M6635 7990 c3 -5 13 -10 21 -10 8 0 12 5 9 10 -3 6 -13 10 -21 10 -8
0 -12 -4 -9 -10z"/>
<path d="M6575 7980 c4 -6 11 -8 16 -5 14 9 11 15 -7 15 -8 0 -12 -5 -9 -10z"/>
<path d="M8089 7449 c-52 -25 -68 -31 -78 -25 -5 4 -38 -5 -73 -20 -81 -34
-195 -62 -281 -68 -37 -3 -71 -7 -75 -10 -16 -10 -266 -57 -278 -52 -7 3 -16
1 -19 -4 -3 -6 -20 -10 -38 -9 -70 1 -213 -15 -232 -26 -14 -8 -60 -11 -145
-9 -69 2 -222 3 -340 3 -247 1 -396 12 -598 47 -79 13 -145 24 -148 24 -2 0 2
-10 11 -23 8 -13 12 -26 9 -30 -12 -11 39 -45 76 -50 19 -3 61 -12 93 -22 43
-12 57 -21 57 -35 0 -10 -4 -21 -8 -24 -5 -3 -190 -12 -413 -21 -222 -9 -483
-23 -579 -31 -96 -9 -254 -20 -350 -24 -96 -4 -283 -13 -415 -19 -132 -6 -301
-16 -375 -21 -74 -6 -229 -15 -345 -21 -115 -6 -257 -14 -315 -19 -58 -4 -188
-9 -290 -10 -225 -1 -508 -16 -610 -30 -41 -6 -109 -15 -150 -20 -41 -5 -86
-12 -100 -16 -20 -6 -108 -61 -209 -130 -12 -9 -29 -31 -36 -48 -14 -33 -12
-52 27 -231 40 -187 48 -218 73 -272 14 -31 25 -65 25 -77 1 -34 143 -617 229
-936 73 -273 160 -611 176 -685 9 -44 21 -91 26 -105 18 -50 59 -241 59 -274
0 -47 51 -171 85 -206 25 -26 36 -30 86 -30 63 0 69 -6 69 -65 0 -19 6 -54 14
-77 8 -24 14 -60 13 -82 -1 -31 5 -43 27 -62 31 -27 77 -31 100 -8 14 13 21
13 51 3 29 -11 74 -10 262 6 126 10 325 19 443 21 118 1 365 6 548 10 298 6
332 5 332 -9 0 -22 14 -29 64 -31 50 -3 67 -12 60 -30 -6 -14 19 -29 51 -30
19 0 29 -6 60 -34 8 -7 19 -11 24 -8 5 4 16 -1 25 -9 8 -9 19 -15 23 -15 27 3
43 -11 44 -37 1 -23 2 -24 7 -8 9 27 32 30 32 4 0 -19 1 -19 16 -5 14 14 34
14 34 0 0 -3 -4 -3 -8 0 -5 3 -16 -4 -25 -15 -21 -24 -21 -30 -2 -23 9 4 15 0
15 -8 0 -8 8 -23 19 -32 17 -16 19 -16 26 1 5 10 7 23 6 30 -1 6 2 14 7 17 5
3 8 -8 7 -25 -2 -25 1 -30 17 -26 18 5 21 0 21 -35 0 -10 6 -18 13 -18 8 0 14
6 14 13 0 8 3 7 10 -3 6 -9 5 -20 -3 -29 -9 -12 -9 -13 1 -7 6 4 12 3 12 -2 0
-15 43 -23 52 -9 5 8 8 7 8 -5 0 -10 7 -18 16 -18 8 0 12 -5 9 -10 -4 -7 2 -9
18 -5 24 6 25 5 21 -34 -3 -32 -1 -39 11 -35 9 4 15 0 15 -10 0 -9 5 -16 10
-16 17 0 11 -28 -7 -40 -15 -9 -14 -10 6 -4 16 4 21 3 17 -5 -4 -6 -2 -11 4
-11 6 0 8 -5 4 -12 -4 -6 -3 -8 3 -5 6 4 20 -4 32 -17 15 -16 19 -26 12 -31
-17 -10 -3 -25 16 -18 11 4 14 3 9 -5 -4 -7 -2 -12 5 -12 6 0 9 -8 6 -20 -3
-11 -2 -18 3 -15 4 3 10 -2 14 -10 5 -14 -5 -19 -31 -16 -7 1 -13 -3 -13 -9 0
-5 6 -9 13 -7 7 1 11 -7 9 -20 -2 -17 1 -21 12 -17 9 3 16 1 16 -5 0 -6 -4
-11 -10 -11 -5 0 -10 -5 -10 -11 0 -5 5 -7 10 -4 6 3 10 0 10 -9 0 -8 -6 -17
-12 -20 -7 -3 -3 -3 10 0 16 4 22 1 22 -10 0 -9 -4 -16 -10 -16 -5 0 -7 -7 -3
-16 7 -18 -15 -92 -34 -115 -7 -8 -16 -31 -19 -50 -4 -19 -11 -39 -16 -46 -12
-16 -19 -73 -9 -73 12 0 41 46 41 66 0 9 18 38 41 63 22 25 45 52 51 59 6 8
10 36 9 62 0 27 4 52 10 56 7 4 9 31 4 79 -3 41 -2 90 4 112 5 21 20 83 32
138 12 55 30 127 41 160 11 33 21 76 24 95 6 56 76 215 136 310 19 30 58 98
86 150 59 107 86 142 191 252 117 123 245 179 541 239 98 20 186 32 240 32
107 1 254 -20 300 -43 35 -17 129 -45 185 -54 26 -5 84 -58 85 -78 0 -16 79
-30 127 -23 77 13 108 10 133 -13 13 -12 32 -24 42 -28 10 -3 18 -15 18 -27 0
-12 16 -38 35 -59 31 -33 38 -36 84 -35 46 2 56 7 52 30 -1 10 1 9 45 -9 155
-62 333 -153 375 -191 65 -59 319 -243 335 -243 4 0 50 -29 103 -65 53 -36
101 -65 107 -65 6 0 47 -24 92 -54 44 -30 94 -57 111 -61 37 -8 41 -22 56
-188 2 -26 7 -56 10 -68 4 -11 1 -26 -5 -34 -6 -7 -12 -29 -12 -47 0 -18 -4
-37 -8 -43 -13 -17 -17 -73 -6 -71 59 11 65 23 62 131 -1 42 1 78 4 81 5 5 6
9 9 35 0 5 6 7 11 4 6 -3 10 -1 10 4 0 6 -4 11 -8 11 -4 0 -6 16 -4 35 2 19 8
32 13 29 5 -3 9 0 9 5 0 6 -4 11 -10 11 -5 0 -10 13 -10 30 0 28 2 29 26 20
14 -6 29 -8 33 -5 5 2 6 -7 3 -20 -2 -14 -8 -22 -13 -19 -5 3 -7 9 -4 14 6 9
-25 23 -34 15 -3 -3 -1 -9 4 -13 15 -11 17 -33 4 -48 -7 -9 -7 -14 -1 -14 5 0
12 6 15 13 3 8 16 13 29 12 21 -2 47 19 48 37 0 13 -25 4 -32 -12 -6 -11 -7
-10 -5 4 2 21 47 34 47 13 0 -8 2 -9 8 -1 4 7 16 13 26 15 11 2 24 19 32 39
11 33 9 40 -26 106 -37 71 -38 94 -4 94 12 0 93 80 121 119 22 32 19 69 -7 93
-27 25 -56 88 -66 142 -6 36 -5 39 12 31 10 -5 57 -18 104 -31 79 -20 94 -21
210 -12 100 8 150 18 250 50 69 22 139 50 155 62 17 12 51 30 77 40 48 18 73
39 140 118 75 87 87 120 83 240 -2 68 -7 91 -27 126 -15 26 -29 39 -32 33 -4
-6 -4 -16 -1 -21 13 -21 13 -143 1 -203 -10 -45 -22 -72 -45 -96 -18 -19 -39
-47 -47 -63 -8 -15 -19 -28 -24 -28 -13 0 -100 -86 -100 -99 0 -11 -39 -26
-58 -22 -8 1 -21 -4 -30 -12 -39 -33 -401 -123 -439 -109 -7 2 -11 9 -10 15 1
6 -15 10 -45 8 -64 -3 -95 14 -243 132 -33 27 -81 60 -107 75 -56 32 -62 57
-24 107 16 21 25 49 29 85 2 30 14 107 26 170 24 133 26 205 8 278 -13 49 -13
53 10 92 25 41 25 41 14 177 -7 75 -10 137 -8 140 3 2 35 -3 73 -11 38 -8 130
-24 204 -35 306 -48 392 -66 455 -100 57 -29 245 -211 245 -236 0 -14 56 -75
70 -75 10 0 11 105 0 204 -15 144 -38 198 -122 292 -77 87 -86 101 -123 200
-14 38 -37 86 -50 106 -14 21 -52 100 -85 175 -149 345 -352 718 -466 855 -33
41 -62 126 -74 220 -5 45 -10 88 -10 95 0 6 -38 43 -84 81 l-84 69 -128 7
c-105 6 -146 13 -218 37 -111 38 -131 48 -181 94 -90 84 -171 123 -310 150
-38 8 -99 29 -135 47 -61 31 -65 35 -65 67 1 30 6 36 33 45 46 16 59 32 30 38
-13 2 -31 1 -39 -3z m-1100 -275 c17 -14 31 -21 31 -14 0 6 5 8 10 5 6 -3 10
-2 10 4 0 6 7 8 16 4 9 -3 13 -12 9 -21 -3 -9 -3 -13 1 -9 4 4 14 1 22 -6 13
-10 14 -9 5 8 -13 23 -12 24 115 29 64 2 82 0 82 -11 0 -7 -7 -13 -15 -13 -8
0 -15 -5 -15 -10 0 -7 6 -7 19 -1 10 6 21 7 25 4 3 -3 6 1 6 10 0 18 11 22 24
10 4 -5 12 -9 17 -9 5 -1 12 -2 17 -3 4 0 -5 -13 -21 -29 -50 -50 -87 -97 -87
-112 0 -9 -14 -32 -31 -53 -16 -20 -33 -53 -36 -72 -3 -19 -9 -35 -13 -35 -17
0 -73 -97 -109 -190 -22 -56 -55 -125 -74 -153 -19 -29 -46 -76 -61 -105 -15
-29 -35 -67 -46 -84 l-19 -31 -19 44 c-56 127 -112 372 -112 488 0 25 -6 56
-14 67 -8 11 -16 31 -18 44 -2 14 -16 33 -35 45 -26 16 -33 29 -38 69 -6 40
-4 51 9 58 9 5 16 16 16 23 0 10 11 15 31 15 25 0 29 -3 25 -18 -9 -27 24 -24
34 3 16 41 60 46 80 10 14 -26 25 -25 25 3 0 9 13 19 31 24 17 4 37 15 44 23
17 20 24 19 59 -11z m41 17 c0 -6 -9 -9 -19 -8 -11 0 -17 5 -15 9 7 11 34 10
34 -1z m370 -21 c0 -5 -7 -10 -15 -10 -8 0 -15 5 -15 10 0 6 7 10 15 10 8 0
15 -4 15 -10z m-760 -40 c0 -5 -7 -10 -16 -10 -8 0 -12 5 -9 10 3 6 10 10 16
10 5 0 9 -4 9 -10z m-4716 -477 c-7 -21 -11 -47 -9 -58 3 -11 14 -58 24 -105
11 -47 22 -111 25 -142 2 -32 7 -62 11 -68 3 -5 1 -10 -4 -10 -6 0 -12 7 -12
15 -2 26 -4 30 -21 70 -22 53 -61 230 -62 279 -1 39 8 47 55 55 4 1 1 -16 -7
-36z m66 -409 c0 -8 -4 -12 -10 -9 -5 3 -10 10 -10 16 0 5 5 9 10 9 6 0 10 -7
10 -16z m15 -90 c4 -32 3 -35 -5 -16 -15 35 -23 92 -10 71 5 -9 12 -34 15 -55z
m69 -270 c47 -195 52 -220 36 -194 -10 19 -78 276 -86 328 -3 20 -8 46 -11 57
-3 13 -2 17 4 10 6 -5 31 -96 57 -201z m6340 -179 c25 -32 27 -43 30 -157 2
-68 6 -133 9 -146 6 -21 4 -22 -31 -16 -20 3 -45 16 -54 28 -15 18 -25 70 -18
101 1 5 3 54 5 108 5 131 13 142 59 82z m-964 -56 c0 -10 -6 -19 -14 -19 -19
0 -28 14 -20 33 8 21 34 10 34 -14z m-5323 -1 c-3 -8 -6 -5 -6 6 -1 11 2 17 5
13 3 -3 4 -12 1 -19z m5214 -30 c21 -17 39 -36 39 -42 0 -6 -10 -30 -22 -53
-22 -41 -36 -49 -77 -44 -18 3 -81 67 -81 84 0 21 62 86 83 86 10 1 36 -13 58
-31z m1193 -337 c59 -17 110 -32 113 -35 18 -17 74 -223 83 -303 15 -134 34
-174 98 -201 l50 -22 7 -66 c14 -125 -20 -314 -55 -314 -6 0 -10 -6 -10 -12 0
-7 -9 -24 -19 -37 -22 -29 -51 -24 -95 15 -26 23 -28 27 -13 36 9 5 21 17 27
28 8 15 6 21 -11 30 -16 9 -32 8 -71 -5 -28 -9 -62 -13 -77 -10 -27 6 -64 -15
-115 -66 -14 -14 -58 -41 -98 -62 -73 -37 -102 -45 -302 -93 -125 -29 -148
-40 -228 -100 -51 -40 -62 -44 -112 -44 l-56 0 0 59 c0 47 5 66 27 97 14 21
43 64 64 94 20 31 44 62 53 69 35 29 -22 37 -74 10 -8 -4 -37 -18 -65 -30 -27
-12 -63 -32 -80 -43 -16 -12 -54 -34 -82 -49 -47 -25 -59 -27 -112 -21 -68 7
-75 17 -59 86 10 46 57 135 95 181 27 34 31 62 7 53 -14 -5 -15 -4 -5 8 7 8
10 20 6 26 -12 19 -47 -29 -102 -137 -27 -55 -50 -71 -39 -29 3 13 10 55 16
94 10 75 50 186 103 286 18 34 34 63 37 66 22 20 49 64 44 71 -9 15 -38 -7
-103 -74 -66 -69 -97 -82 -86 -38 4 14 19 40 34 56 16 17 49 60 75 97 56 79
85 106 199 182 94 63 167 93 322 133 229 59 426 63 609 14z m350 -17 c9 -3 16
-12 16 -20 0 -11 -37 -74 -77 -133 -6 -8 -14 7 -19 34 -3 16 -9 35 -13 44 -4
9 -5 27 -2 41 5 19 15 27 41 31 19 4 36 7 37 8 1 0 8 -2 17 -5z m-1840 -10
c23 -9 20 -42 -5 -49 -30 -10 -57 18 -39 39 14 18 21 19 44 10z m1916 -21 c0
-9 -13 -37 -28 -62 -16 -25 -42 -68 -57 -96 -16 -27 -30 -44 -33 -37 -4 14 56
170 77 195 18 22 41 22 41 0z m-6672 -163 c0 -19 -3 -16 -13 15 -8 22 -13 51
-13 65 0 19 3 16 13 -15 8 -22 13 -51 13 -65z m4623 43 c10 -59 -10 -84 -42
-52 -23 23 -23 24 -3 43 16 17 43 22 45 9z m-91 -238 c0 -2 -5 -16 -12 -30 -8
-18 -14 -22 -20 -13 -12 20 -10 28 8 28 8 0 12 5 9 10 -3 6 -1 10 4 10 6 0 11
-2 11 -5z m-1907 -1192 c-7 -2 -21 -2 -30 0 -10 3 -4 5 12 5 17 0 24 -2 18 -5z
m4267 -239 c0 -14 -3 -14 -15 -4 -12 10 -15 10 -15 0 0 -8 -3 -11 -6 -7 -9 9
5 27 22 27 8 0 14 -7 14 -16z m-4120 -41 c0 -7 -4 -13 -10 -13 -5 0 -10 -7
-10 -15 0 -8 -5 -15 -10 -15 -7 0 -7 7 1 21 8 15 8 24 0 32 -14 14 -23 4 -25
-27 0 -14 -7 -26 -13 -26 -16 0 -16 2 -1 37 6 15 11 31 10 35 -1 3 12 1 28 -5
17 -6 30 -17 30 -24z m3974 -18 c-4 -8 -8 -15 -10 -15 -2 0 -4 7 -4 15 0 8 4
15 10 15 5 0 7 -7 4 -15z"/>
<path d="M6925 7150 c3 -5 8 -10 11 -10 2 0 4 5 4 10 0 6 -5 10 -11 10 -5 0
-7 -4 -4 -10z"/>
<path d="M7153 7153 c-18 -7 -16 -20 2 -20 8 0 15 6 15 14 0 7 -1 13 -2 12 -2
0 -9 -3 -15 -6z"/>
<path d="M7225 7140 c3 -5 8 -10 11 -10 2 0 4 5 4 10 0 6 -5 10 -11 10 -5 0
-7 -4 -4 -10z"/>
<path d="M7032 7120 c13 -20 28 -27 28 -12 0 4 -9 13 -20 20 -19 12 -20 11 -8
-8z"/>
<path d="M6772 7091 c-10 -6 -10 -10 2 -20 16 -13 29 -2 18 16 -4 7 -13 8 -20
4z"/>
<path d="M6647 7084 c-11 -12 3 -24 29 -24 15 0 24 6 24 15 0 15 -40 21 -53 9z"/>
<path d="M7210 7083 c8 -3 18 -10 21 -15 3 -5 9 -3 12 6 5 12 0 16 -21 15 -16
0 -21 -3 -12 -6z"/>
<path d="M6830 7055 c-10 -12 -9 -15 8 -15 11 0 22 -7 26 -15 3 -8 11 -15 17
-15 8 0 7 5 -2 16 -11 13 -10 15 3 12 9 -1 16 2 15 7 -1 6 -7 10 -14 10 -6 0
-15 4 -19 8 -11 11 -20 9 -34 -8z"/>
<path d="M6956 7043 c-11 -11 -6 -23 9 -23 8 0 15 4 15 9 0 13 -16 22 -24 14z"/>
<path d="M6680 7031 c0 -5 14 -14 31 -21 26 -11 32 -11 39 0 5 8 6 18 3 23 -3
5 -8 5 -12 -1 -4 -7 -12 -8 -21 -2 -19 12 -40 13 -40 1z"/>
<path d="M7490 4656 c-14 -8 -28 -12 -31 -10 -3 2 -14 -5 -23 -15 -16 -18 -13
-51 6 -51 19 0 68 31 63 40 -3 5 -1 19 5 30 13 23 12 23 -20 6z"/>
<path d="M8323 4284 c-32 -14 -52 -34 -34 -34 5 0 12 4 16 10 3 5 11 7 18 4 7
-2 22 4 32 16 21 23 13 24 -32 4z"/>
<path d="M10210 4605 c0 -2 4 -14 9 -27 5 -13 12 -32 16 -43 6 -18 7 -18 16
-4 11 22 -8 79 -27 79 -8 0 -14 -2 -14 -5z"/>
<path d="M10190 4219 c0 -5 5 -7 10 -4 6 3 10 8 10 11 0 2 -4 4 -10 4 -5 0
-10 -5 -10 -11z"/>
<path d="M10161 4194 c0 -11 3 -14 6 -6 3 7 2 16 -1 19 -3 4 -6 -2 -5 -13z"/>
<path d="M9120 4173 c0 -12 9 -27 19 -32 15 -9 20 -7 24 9 5 18 1 22 -19 19
-4 0 -11 5 -15 13 -6 9 -9 7 -9 -9z"/>
<path d="M10115 4171 c-3 -5 -1 -12 4 -15 5 -3 11 1 15 9 6 16 -9 21 -19 6z"/>
<path d="M7137 3363 c-2 -13 0 -26 4 -29 5 -3 9 -10 9 -16 0 -6 -9 -4 -22 4
-69 45 -65 44 -88 18 -22 -25 -22 -42 -5 -110 4 -18 0 -31 -14 -47 -11 -12
-23 -34 -26 -50 -4 -15 -16 -57 -27 -93 -35 -114 -38 -126 -38 -173 0 -26 -4
-47 -10 -47 -5 0 -7 -6 -4 -13 3 -8 1 -25 -5 -39 -13 -35 0 -52 34 -44 20 5
25 10 17 18 -13 13 -4 38 13 38 13 0 15 24 3 36 -4 3 -3 15 3 25 5 10 14 28
19 39 6 11 10 28 10 37 0 30 28 99 60 150 18 28 30 58 28 73 -2 16 2 25 11 25
32 0 121 -92 113 -118 -1 -5 2 -6 7 -3 15 9 70 -64 77 -102 4 -20 1 -43 -6
-58 -8 -13 -10 -27 -7 -31 4 -3 7 0 7 8 0 11 2 11 10 -1 12 -18 13 -33 2 -26
-4 2 -14 0 -22 -5 -11 -7 -8 -8 10 -5 14 3 28 5 33 5 4 1 6 6 5 13 -4 15 44
27 60 15 15 -12 16 -67 1 -67 -6 0 -9 -9 -6 -20 6 -23 -22 -44 -46 -34 -9 3
-17 -3 -21 -18 -15 -57 5 -65 43 -18 13 16 27 27 32 24 14 -8 11 -26 -3 -18
-10 5 -10 4 -1 -6 7 -8 9 -21 3 -34 -4 -12 -4 -44 1 -70 6 -33 5 -58 -5 -85
-7 -21 -11 -60 -9 -87 2 -27 -1 -63 -8 -79 -7 -17 -13 -34 -13 -38 -1 -4 -6
-11 -12 -15 -6 -4 -14 -16 -17 -26 -4 -10 -10 -16 -14 -13 -8 9 -32 -24 -33
-43 0 -9 -8 -22 -19 -29 -11 -8 -16 -21 -14 -32 4 -12 -8 -37 -31 -66 -20 -25
-36 -52 -36 -59 0 -7 -11 -25 -24 -41 -13 -16 -27 -46 -31 -66 -9 -44 -17 -45
-89 -12 -30 14 -60 25 -66 25 -7 0 -24 6 -38 14 -52 27 -105 47 -109 42 -3 -3
-12 2 -20 10 -11 11 -13 32 -10 87 2 39 6 81 8 92 3 12 -1 19 -8 18 -7 -2 -13
2 -13 7 0 6 -6 10 -14 10 -10 0 -19 -20 -26 -57 -15 -70 -39 -97 -80 -88 -21
5 -34 1 -49 -14 -10 -10 -22 -17 -25 -14 -3 4 -6 4 -6 1 0 -15 66 -46 88 -42
14 3 29 -1 36 -11 16 -22 85 -55 102 -48 8 3 14 1 14 -4 0 -11 56 -44 63 -37
3 3 27 -11 54 -31 35 -26 55 -35 75 -33 16 3 24 0 21 -6 -4 -5 0 -7 9 -3 9 3
32 2 51 -3 31 -7 36 -5 41 14 3 12 14 31 26 43 11 12 20 27 20 32 0 6 9 16 20
23 12 7 32 32 46 55 13 23 34 49 46 57 19 14 26 12 77 -16 31 -17 61 -35 67
-39 21 -17 108 -37 188 -44 47 -4 95 -15 115 -26 19 -10 38 -16 43 -13 4 3 20
-2 35 -10 65 -35 227 -59 317 -46 159 22 210 39 238 78 7 10 36 24 63 31 28 7
61 17 75 23 25 11 46 15 110 22 70 8 130 29 157 54 16 14 52 38 81 53 60 32
152 107 152 124 0 6 -11 22 -25 35 -26 24 -26 24 -31 3 -3 -11 -26 -36 -51
-54 -25 -19 -54 -46 -65 -62 -11 -15 -23 -25 -28 -22 -9 5 -58 -15 -105 -44
-16 -10 -33 -16 -37 -14 -5 2 -8 0 -8 -6 0 -5 -15 -12 -32 -16 -18 -3 -42 -10
-53 -15 -51 -21 -218 -71 -233 -69 -9 2 -38 -7 -64 -19 -28 -13 -69 -23 -100
-23 -29 -1 -62 -8 -73 -15 -23 -17 -145 -19 -145 -3 0 6 -9 8 -21 4 -25 -8
-115 12 -133 30 -7 7 -28 15 -47 17 -19 3 -45 9 -59 15 -14 6 -34 14 -45 18
-12 4 -15 9 -9 13 6 4 10 17 9 30 -1 12 2 22 7 22 4 0 8 -14 8 -32 0 -51 8
-28 15 42 3 35 8 66 10 69 3 2 12 -2 22 -10 14 -12 16 -12 8 0 -6 11 -3 13 16
8 23 -6 23 -5 5 8 -15 11 -16 17 -7 28 6 8 8 22 5 31 -6 16 -8 16 -25 0 -10
-9 -16 -21 -13 -25 5 -8 -3 -11 -22 -8 -4 0 -10 -5 -15 -12 -4 -8 -11 -11 -14
-7 -4 3 2 14 13 24 10 11 22 27 25 37 4 10 11 15 17 12 5 -3 10 -1 10 5 0 7
-7 10 -15 6 -9 -3 -15 0 -15 9 0 8 -5 15 -11 15 -5 0 -7 5 -4 10 9 14 -9 12
-24 -2 -7 -7 -12 -8 -11 -3 5 22 -1 31 -19 31 -10 0 -17 -6 -14 -12 6 -17 -10
-25 -27 -13 -8 5 -10 9 -4 9 7 0 14 9 17 21 4 13 10 18 17 14 9 -6 9 -2 1 14
-11 19 -8 25 12 22 4 0 7 11 7 25 0 23 2 25 15 14 12 -10 19 -10 27 -2 8 8 4
14 -18 22 -20 8 -30 8 -32 1 -6 -19 -22 -1 -23 27 -1 17 -3 21 -6 10 -5 -21
-23 -24 -23 -4 0 25 12 46 23 39 5 -3 7 -1 3 5 -3 5 0 13 6 15 10 4 10 6 0 6
-7 1 -10 6 -6 13 4 7 3 8 -5 4 -6 -4 -9 -12 -5 -17 3 -6 0 -9 -7 -8 -8 2 -24
-1 -37 -5 -13 -4 -26 -6 -28 -3 -8 7 33 94 68 146 31 46 35 57 44 126 5 37 2
42 -27 62 -37 25 -37 25 -77 -50 l-20 -38 0 76 c1 42 4 78 8 80 4 3 -1 25 -13
49 -19 43 -21 44 -65 42 -31 -1 -47 4 -52 14 -27 54 -50 109 -50 118 0 6 -10
27 -22 47 -17 30 -19 38 -7 45 8 6 20 4 30 -6 8 -7 21 -14 27 -14 7 0 35 -11
64 -25 28 -14 57 -25 64 -25 6 0 22 -10 35 -23 13 -13 50 -38 82 -55 l58 -31
-3 27 c-3 31 -33 62 -59 62 -10 0 -25 10 -33 21 -8 12 -21 19 -29 16 -9 -3
-19 4 -26 20 -10 21 -16 24 -41 20 -23 -5 -35 -1 -58 22 -15 16 -43 32 -61 36
-28 6 -33 4 -38 -14 -3 -12 -8 -21 -12 -21 -7 1 -69 80 -87 112 -6 10 -27 27
-47 37 l-35 18 -5 -24z m23 -71 c21 -11 69 -85 89 -136 2 -5 -30 24 -72 64
-52 51 -72 77 -64 82 7 4 14 6 17 5 3 -1 16 -8 30 -15z m443 -892 c3 -11 0
-23 -5 -27 -7 -4 -8 -1 -3 7 5 8 4 11 -3 6 -6 -4 -9 -13 -5 -21 3 -10 -1 -15
-12 -15 -9 0 -13 5 -10 10 3 6 2 10 -4 10 -8 0 18 35 35 49 1 1 4 -8 7 -19z
m32 -259 c-3 -6 -11 -8 -17 -5 -6 4 -5 9 3 15 16 10 23 4 14 -10z m-205 -11
c0 -5 -5 -10 -11 -10 -5 0 -7 5 -4 10 3 6 8 10 11 10 2 0 4 -4 4 -10z m250 0
c0 -5 -2 -10 -4 -10 -3 0 -8 5 -11 10 -3 6 -1 10 4 10 6 0 11 -4 11 -10z
m1200 6 c0 -3 -4 -8 -10 -11 -5 -3 -10 -1 -10 4 0 6 5 11 10 11 6 0 10 -2 10
-4z m-1430 -31 c0 -16 -35 -21 -45 -6 -3 6 4 8 15 6 11 -2 20 0 20 6 0 5 2 9
5 9 3 0 5 -7 5 -15z m161 -38 c-10 -9 -11 -8 -5 6 3 10 9 15 12 12 3 -3 0 -11
-7 -18z"/>
<path d="M9151 3155 c-1 -6 5 -17 12 -24 8 -10 8 -12 0 -7 -6 3 -14 2 -18 -3
-3 -6 -13 -8 -23 -5 -12 4 -14 3 -4 -3 10 -8 10 -12 -2 -22 -8 -7 -20 -10 -26
-6 -22 14 -8 -4 16 -20 24 -16 27 -16 45 1 10 9 16 21 13 25 -3 5 0 9 5 9 6 0
11 12 11 26 0 14 -4 23 -9 20 -5 -4 -12 0 -14 6 -3 7 -6 8 -6 3z m-11 -80 c-7
-9 -15 -13 -18 -10 -3 2 1 11 8 20 7 9 15 13 18 10 3 -2 -1 -11 -8 -20z"/>
<path d="M7880 2920 c6 -11 12 -20 14 -20 2 0 2 9 -1 20 -3 11 -9 20 -15 20
-5 0 -4 -9 2 -20z"/>
<path d="M9282 2921 c0 -3 -1 -8 -2 -11 -8 -21 -6 -40 3 -37 17 5 27 54 11 54
-7 0 -13 -3 -12 -6z"/>
<path d="M5283 2815 c-3 -9 -3 -18 -1 -21 3 -3 8 4 11 16 6 23 -1 27 -10 5z"/>
<path d="M8985 2820 c3 -5 10 -10 16 -10 5 0 9 5 9 10 0 6 -7 10 -16 10 -8 0
-12 -4 -9 -10z"/>
<path d="M7284 2800 c-26 -10 -38 -26 -26 -34 5 -3 20 6 32 19 26 27 25 28 -6
15z"/>
<path d="M7305 2770 c3 -5 8 -10 11 -10 2 0 4 5 4 10 0 6 -5 10 -11 10 -5 0
-7 -4 -4 -10z"/>
<path d="M8894 2733 c3 -6 2 -14 -4 -18 -5 -3 -10 -11 -10 -18 0 -6 7 -4 17 6
14 14 15 19 4 29 -9 9 -12 9 -7 1z"/>
<path d="M6923 2673 c0 -14 -5 -28 -10 -32 -5 -3 -21 -42 -34 -85 -13 -43 -27
-78 -32 -77 -4 1 -18 -9 -31 -21 -14 -13 -35 -32 -48 -43 -13 -11 -27 -27 -30
-35 -7 -20 9 -63 22 -55 5 3 10 0 10 -8 0 -19 26 -41 34 -28 9 14 -5 42 -17
34 -6 -4 -1 8 12 25 12 18 26 32 30 32 4 0 24 15 44 33 35 31 74 117 62 137
-3 5 -1 11 4 14 5 3 11 20 15 38 17 99 18 96 -8 96 -18 0 -23 -6 -23 -25z"/>
<path d="M8848 2693 c7 -3 16 -2 19 1 4 3 -2 6 -13 5 -11 0 -14 -3 -6 -6z"/>
<path d="M8818 2653 c7 -3 16 -2 19 1 4 3 -2 6 -13 5 -11 0 -14 -3 -6 -6z"/>
<path d="M8423 2633 c9 -9 20 -13 24 -9 4 4 1 11 -7 16 -25 16 -35 11 -17 -7z"/>
<path d="M8640 2619 c0 -5 5 -7 10 -4 6 3 10 8 10 11 0 2 -4 4 -10 4 -5 0 -10
-5 -10 -11z"/>
<path d="M8690 2619 c0 -5 5 -7 10 -4 6 3 10 8 10 11 0 2 -4 4 -10 4 -5 0 -10
-5 -10 -11z"/>
<path d="M9236 2555 c-9 -13 -16 -28 -16 -33 0 -5 -14 -23 -30 -41 -29 -30
-27 -35 15 -31 29 3 44 20 49 60 2 19 7 43 11 53 11 26 -10 21 -29 -8z"/>
<path d="M5140 2551 c0 -6 4 -12 8 -15 5 -3 9 1 9 9 0 8 -4 15 -9 15 -4 0 -8
-4 -8 -9z"/>
<path d="M4443 2477 c-24 -39 2 -66 119 -122 63 -31 78 -50 42 -53 -14 -1 -38
-9 -55 -17 -44 -23 -209 -36 -277 -22 -25 5 -31 4 -26 -6 5 -9 4 -9 -7 1 -19
18 -76 16 -76 -3 0 -10 4 -12 12 -5 6 5 16 5 25 0 10 -7 11 -10 3 -10 -24 0
-13 -30 12 -36 14 -3 25 -10 25 -14 0 -12 171 -12 185 0 6 5 36 12 66 14 30 3
70 8 89 12 19 3 44 7 56 8 11 1 25 5 31 9 6 4 18 4 27 1 9 -3 22 -2 29 3 15
12 165 8 236 -6 29 -6 57 -9 61 -6 5 3 12 1 15 -5 8 -14 46 -2 62 19 18 24 16
45 -7 59 -16 10 -20 10 -20 0 0 -10 -2 -10 -9 0 -4 8 -11 13 -15 12 -3 0 -22
2 -41 6 -30 5 -33 8 -22 25 14 23 9 27 -34 34 -26 4 -29 3 -14 -4 17 -8 17
-10 3 -10 -11 -1 -15 -6 -12 -16 4 -8 1 -15 -5 -15 -6 0 -11 9 -11 20 0 11 -5
20 -11 20 -6 0 -8 -9 -4 -20 3 -11 2 -20 -3 -20 -13 0 -22 49 -11 56 5 3 14
15 19 27 8 16 4 13 -15 -8 -25 -29 -26 -29 -40 -11 -13 17 -15 17 -21 3 -3 -9
-12 -13 -20 -10 -12 4 -18 -6 -16 -28 1 -8 -28 -5 -50 5 -10 5 -15 12 -12 17
3 5 -2 6 -10 3 -8 -3 -38 6 -68 19 -29 14 -71 30 -93 37 -22 7 -47 18 -55 25
-24 20 -49 25 -57 12z"/>
<path d="M8798 2454 c-13 -12 -9 -33 10 -53 38 -42 43 -52 37 -70 -6 -19 19
-38 29 -22 15 24 -24 121 -49 121 -7 0 -15 7 -17 16 -2 9 -6 12 -10 8z"/>
<path d="M7677 2443 c-12 -12 -7 -22 8 -17 8 4 15 10 15 15 0 11 -14 12 -23 2z"/>
<path d="M4989 2393 c-13 -16 -12 -17 4 -4 16 13 21 21 13 21 -2 0 -10 -8 -17
-17z"/>
<path d="M9115 2370 c-10 -11 -13 -20 -7 -20 6 0 16 9 22 20 6 11 9 20 7 20
-2 0 -12 -9 -22 -20z"/>
<path d="M5270 2346 c0 -9 5 -16 10 -16 6 0 10 4 10 9 0 6 -4 13 -10 16 -5 3
-10 -1 -10 -9z"/>
<path d="M7710 2329 c0 -5 -4 -7 -10 -4 -5 3 -10 1 -10 -4 0 -6 7 -11 15 -11
8 0 15 7 15 15 0 8 -2 15 -5 15 -3 0 -5 -5 -5 -11z"/>
<path d="M7221 2291 c-10 -17 -9 -21 3 -21 20 0 27 13 16 29 -6 11 -10 9 -19
-8z"/>
<path d="M9020 2284 c0 -17 22 -14 28 4 2 7 -3 12 -12 12 -9 0 -16 -7 -16 -16z"/>
<path d="M7155 2221 c-3 -5 0 -13 6 -17 7 -4 9 -3 5 4 -3 5 0 13 6 15 9 4 10
6 1 6 -6 1 -14 -3 -18 -8z"/>
<path d="M7785 2210 c-3 -5 -1 -10 4 -10 6 0 11 5 11 10 0 6 -2 10 -4 10 -3 0
-8 -4 -11 -10z"/>
<path d="M5560 2183 c0 -7 9 -17 20 -23 14 -7 20 -7 20 0 0 5 7 10 15 10 8 0
15 -3 15 -7 0 -5 18 -8 40 -8 38 -1 48 8 32 30 -11 16 -142 14 -142 -2z"/>
<path d="M7116 2185 c4 -8 8 -15 10 -15 2 0 4 7 4 15 0 8 -4 15 -10 15 -5 0
-7 -7 -4 -15z"/>
<path d="M4138 2182 c-29 -6 -20 -27 12 -29 17 -1 30 2 30 6 0 14 -24 28 -42
23z"/>
<path d="M7835 2160 c-3 -5 -1 -10 4 -10 6 0 11 5 11 10 0 6 -2 10 -4 10 -3 0
-8 -4 -11 -10z"/>
<path d="M6150 2143 c0 -13 5 -23 10 -23 13 0 13 11 0 30 -8 12 -10 11 -10 -7z"/>
<path d="M7910 2151 c0 -5 5 -13 10 -16 6 -3 10 -2 10 4 0 5 -4 13 -10 16 -5
3 -10 2 -10 -4z"/>
<path d="M6260 2130 c0 -5 5 -10 11 -10 5 0 7 5 4 10 -3 6 -8 10 -11 10 -2 0
-4 -4 -4 -10z"/>
<path d="M6308 2133 c7 -3 16 -2 19 1 4 3 -2 6 -13 5 -11 0 -14 -3 -6 -6z"/>
<path d="M7785 2120 c-4 -6 -11 -8 -16 -5 -16 11 -9 -7 9 -21 20 -16 58 -18
67 -5 7 13 -26 30 -44 23 -8 -3 -11 0 -7 7 4 6 5 11 2 11 -3 0 -8 -5 -11 -10z"/>
<path d="M7715 2100 c-3 -5 -2 -10 4 -10 5 0 13 5 16 10 3 6 2 10 -4 10 -5 0
-13 -4 -16 -10z"/>
<path d="M6510 2068 c0 -11 7 -18 19 -18 13 0 19 6 18 19 -2 25 -37 24 -37 -1z"/>
<path d="M7770 2056 c0 -2 7 -7 16 -10 8 -3 12 -2 9 4 -6 10 -25 14 -25 6z"/>
<path d="M7830 2039 c0 -5 5 -7 10 -4 6 3 10 8 10 11 0 2 -4 4 -10 4 -5 0 -10
-5 -10 -11z"/>
<path d="M7915 2040 c-3 -5 -1 -10 4 -10 6 0 11 5 11 10 0 6 -2 10 -4 10 -3 0
-8 -4 -11 -10z"/>
<path d="M7896 1984 c-6 -15 -4 -15 11 -3 10 7 20 15 22 16 2 2 -3 3 -11 3 -9
0 -19 -7 -22 -16z"/>
<path d="M8035 1990 c-3 -5 -2 -10 4 -10 5 0 13 5 16 10 3 6 2 10 -4 10 -5 0
-13 -4 -16 -10z"/>
<path d="M7200 1750 c0 -5 7 -10 15 -10 8 0 15 5 15 10 0 6 -7 10 -15 10 -8 0
-15 -4 -15 -10z"/>
<path d="M5216 1723 c-4 -4 -13 -8 -19 -8 -27 -2 -74 -19 -99 -36 -14 -11 -30
-19 -35 -19 -4 0 -16 -7 -26 -14 -15 -11 -10 -13 35 -11 29 1 69 5 89 9 30 6
39 4 60 -18 34 -36 40 -32 33 17 -11 87 -18 100 -38 80z"/>
<path d="M4817 1676 c-6 -14 0 -26 13 -26 3 0 6 9 6 20 0 23 -11 27 -19 6z"/>
<path d="M4464 1638 c-34 -9 -109 -20 -141 -20 -13 0 -23 -4 -23 -10 0 -5 -8
-7 -19 -3 -24 7 -51 -4 -45 -19 6 -15 179 5 258 30 28 9 79 15 115 15 46 0 61
3 51 9 -17 12 -152 10 -196 -2z"/>
<path d="M5646 1606 c65 -29 240 -42 275 -20 6 4 15 0 20 -7 4 -7 11 -10 16
-6 12 12 -19 27 -52 25 -17 -1 -36 2 -43 6 -6 4 -65 9 -129 12 -108 4 -115 3
-87 -10z"/>
<path d="M5309 1596 c16 -19 44 -21 39 -3 -3 6 -15 14 -28 15 -21 3 -22 2 -11
-12z"/>
<path d="M5370 1590 c0 -5 0 -13 0 -17 0 -5 14 -8 30 -8 32 0 41 19 14 29 -24
9 -44 7 -44 -4z"/>
<path d="M6000 1580 c0 -5 7 -10 16 -10 8 0 12 5 9 10 -3 6 -10 10 -16 10 -5
0 -9 -4 -9 -10z"/>
<path d="M3965 1473 l-25 -37 33 -33 c17 -18 37 -33 44 -33 18 0 26 37 13 61
-7 12 -10 34 -8 50 7 43 -25 38 -57 -8z"/>
<path d="M4505 1500 c-3 -6 1 -7 9 -4 18 7 21 14 7 14 -6 0 -13 -4 -16 -10z"/>
<path d="M6755 1400 c3 -5 11 -10 16 -10 6 0 7 5 4 10 -3 6 -11 10 -16 10 -6
0 -7 -4 -4 -10z"/>
<path d="M4770 1370 c0 -5 6 -10 14 -10 8 0 18 5 21 10 3 6 -3 10 -14 10 -12
0 -21 -4 -21 -10z"/>
<path d="M4998 1373 c6 -2 18 -2 25 0 6 3 1 5 -13 5 -14 0 -19 -2 -12 -5z"/>
<path d="M5060 1360 c20 -13 40 -13 40 0 0 6 -12 10 -27 10 -22 0 -25 -2 -13
-10z"/>
<path d="M6911 1341 c-39 -10 -36 -29 6 -36 21 -4 50 -11 65 -17 27 -10 48 -5
48 13 0 5 -13 9 -30 9 -16 0 -37 8 -47 18 -12 13 -26 17 -42 13z"/>
<path d="M7030 1339 c0 -5 5 -7 10 -4 6 3 10 8 10 11 0 2 -4 4 -10 4 -5 0 -10
-5 -10 -11z"/>
<path d="M5322 1249 c-7 -11 -18 -16 -28 -12 -11 4 -22 -1 -30 -12 -18 -25
-18 -49 0 -42 8 3 17 -1 20 -9 7 -19 32 -18 40 2 3 8 10 13 15 9 5 -3 13 0 17
6 3 6 0 15 -7 20 -11 7 -12 12 -2 28 10 15 9 20 -1 24 -7 3 -18 -3 -24 -14z"/>
<path d="M6816 1115 c-4 -14 -2 -33 3 -43 8 -13 10 -8 11 26 0 48 -5 54 -14
17z"/>
<path d="M4728 1033 c7 -3 16 -2 19 1 4 3 -2 6 -13 5 -11 0 -14 -3 -6 -6z"/>
<path d="M5295 860 c-3 -5 -1 -10 4 -10 6 0 11 5 11 10 0 6 -2 10 -4 10 -3 0
-8 -4 -11 -10z"/>
<path d="M5990 799 c0 -5 5 -7 10 -4 6 3 10 8 10 11 0 2 -4 4 -10 4 -5 0 -10
-5 -10 -11z"/>
<path d="M4900 676 c0 -14 5 -26 10 -26 6 0 10 9 10 19 0 11 -4 23 -10 26 -6
4 -10 -5 -10 -19z"/>
<path d="M4867 565 c-3 -16 -9 -47 -13 -68 -3 -20 -14 -42 -23 -47 -14 -8 -14
-9 3 -10 12 0 16 -5 12 -16 -7 -17 3 -64 13 -64 3 0 7 17 7 38 1 20 5 60 10
87 6 28 7 64 4 80 l-6 30 -7 -30z"/>
<path d="M4530 349 c0 -4 -10 -10 -22 -12 -19 -4 6 -3 75 2 4 1 7 5 7 10 0 5
-13 9 -30 9 -16 -1 -30 -5 -30 -9z"/>
</g>
</svg>
