 <svg  version="1.0" xmlns="http://www.w3.org/2000/svg"  width="300.000000pt" height="346.000000pt" viewBox="0 0 300.000000 346.000000"  preserveAspectRatio="xMidYMid meet">  <g transform="translate(0.000000,346.000000) scale(0.050000,-0.050000)" fill="#c2c2c2" stroke="none"> <path d="M2799 6895 c0 -14 -29 -56 -64 -95 l-63 -70 -191 -1 c-284 -2 -513 -133 -631 -361 -22 -43 -86 -145 -142 -228 -119 -174 -212 -350 -194 -368 7 -6 2 -12 -12 -12 -13 0 -57 -70 -97 -155 -156 -336 -96 -872 134 -1200 105 -150 276 -331 299 -317 33 21 117 -162 129 -281 13 -133 65 -284 119 -348 36 -42 37 -42 -66 -68 -27 -7 -266 -20 -530 -29 -808 -27 -873 -94 -709 -735 198 -775 370 -1127 550 -1127 77 0 83 -3 74 -48 -5 -27 2 -97 15 -155 14 -59 32 -192 40 -297 17 -210 66 -347 154 -435 50 -51 56 -71 66 -255 9 -145 22 -215 48 -255 l37 -55 718 0 718 0 39 64 c21 35 44 92 51 125 29 137 90 295 147 377 l59 88 160 -10 c467 -27 813 266 813 690 l0 204 117 43 c388 141 442 465 148 883 -50 70 -100 170 -114 226 -29 122 -142 332 -168 316 -11 -7 -13 -3 -6 8 15 26 -135 263 -177 279 -45 17 -36 82 15 110 25 13 90 57 145 98 82 61 123 76 227 86 412 41 684 495 522 871 l-45 105 73 237 c40 131 73 262 73 293 0 31 14 93 32 140 55 144 -3 436 -145 726 -231 474 -581 721 -1247 881 -57 14 -108 37 -114 52 -15 39 -1006 42 -1007 3z m591 -106 c66 -28 188 -58 270 -68 234 -28 840 -215 840 -259 0 -7 25 -23 55 -37 252 -112 599 -641 735 -1120 45 -157 -67 17 -141 219 -49 137 -204 314 -250 285 -28 -17 2 -68 32 -56 17 7 37 -8 49 -36 11 -26 46 -87 76 -137 107 -173 145 -292 150 -460 5 -181 -33 -262 -42 -91 -8 153 -18 193 -64 255 -22 30 -40 60 -40 67 0 7 -18 36 -40 64 -30 37 -40 42 -40 18 0 -18 11 -33 23 -33 13 0 18 -6 11 -12 -7 -7 10 -45 37 -85 33 -49 49 -100 49 -158 0 -50 9 -85 23 -85 55 0 -18 -375 -86 -443 -63 -63 -87 -36 -92 103 -5 141 -25 192 -25 65 0 -93 -43 -126 -86 -64 -15 21 -34 33 -41 26 -7 -8 -13 -3 -13 10 0 13 -16 24 -35 25 -33 3 -33 3 0 12 32 8 44 31 37 72 -2 10 6 12 16 5 45 -28 35 25 -11 59 -122 92 -231 327 -154 332 34 2 34 3 2 12 -20 5 -30 17 -24 28 6 10 2 18 -10 18 -11 0 -21 -11 -22 -25 0 -14 -14 5 -30 42 -29 67 -23 114 12 92 11 -6 19 -2 19 8 0 11 -16 25 -35 31 -19 6 -11 8 18 4 38 -4 50 2 43 21 -6 15 0 27 12 27 34 0 26 54 -9 68 -17 6 -26 21 -19 32 7 11 -2 26 -19 32 -41 16 -40 48 2 48 19 0 28 5 22 12 -24 24 -95 -16 -95 -53 0 -27 10 -35 35 -27 32 10 31 8 -2 -19 -50 -41 -87 -23 -88 43 -1 114 -16 156 -79 224 -81 87 -83 132 -7 176 75 43 89 97 40 160 -49 63 -52 144 -5 144 51 0 2 40 -144 118 -89 48 -105 52 -62 18 136 -108 152 -126 134 -154 -11 -17 -28 -21 -45 -10 -58 36 -193 10 -167 -32 14 -23 113 -4 132 25 7 10 17 6 23 -9 26 -68 -81 -139 -119 -79 -44 71 -121 67 -107 -5 1 -10 -29 -12 -68 -6 -56 9 -71 5 -71 -20 0 -22 14 -28 50 -21 32 6 50 0 50 -16 0 -14 32 -53 72 -88 39 -35 67 -74 62 -88 -5 -14 13 -47 41 -74 66 -63 125 -159 125 -204 0 -19 8 -35 18 -35 20 0 167 -296 202 -410 39 -124 78 -194 156 -275 39 -41 66 -80 59 -87 -19 -19 -131 68 -145 113 -7 21 -21 39 -31 39 -27 0 -24 -11 21 -101 90 -176 69 -333 -41 -305 -25 7 -43 -2 -53 -27 -28 -77 -106 -111 -106 -47 0 36 -113 339 -181 485 -30 64 -68 75 -48 13 l13 -42 -42 42 c-23 23 -42 50 -42 60 0 9 -13 28 -30 42 -25 21 -30 18 -30 -19 0 -24 7 -39 15 -34 8 5 32 -14 53 -42 22 -29 29 -45 17 -38 -14 9 -21 -2 -20 -27 4 -45 26 -53 42 -15 10 25 92 -55 93 -91 0 -8 14 -49 31 -90 17 -41 30 -76 30 -79 -1 -3 12 -32 29 -64 40 -78 38 -102 -8 -95 -59 9 -104 56 -92 95 10 31 -1 36 -82 36 -56 0 -100 10 -110 26 -11 18 -17 19 -18 4 0 -38 -109 1 -117 42 -5 24 1 31 18 20 17 -10 20 -7 10 10 -10 15 -5 33 11 44 18 11 -10 13 -74 5 -63 -8 -108 -4 -116 8 -8 14 -33 11 -72 -9 -33 -16 -69 -24 -80 -17 -39 24 -20 69 35 83 30 8 65 25 79 38 13 13 66 30 117 38 65 10 108 31 141 68 76 87 64 105 -62 90 -122 -14 -136 2 -62 71 39 37 56 41 89 24 81 -44 87 -8 11 77 -67 75 -148 51 -148 -43 0 -33 -13 -62 -31 -69 -23 -9 -25 -18 -7 -39 13 -16 17 -29 10 -30 -6 -2 -19 -4 -27 -6 -8 -1 -48 -18 -89 -38 -48 -23 -94 -30 -128 -22 -36 9 -50 7 -41 -8 8 -12 5 -27 -6 -33 -10 -7 -29 6 -41 28 -19 36 -15 41 31 41 40 0 50 8 41 31 -6 17 -3 26 7 20 35 -22 38 20 4 64 -19 27 -61 48 -102 53 -42 5 -86 28 -113 58 l-44 51 4 -85 c3 -63 23 -111 78 -186 61 -84 69 -104 42 -114 -64 -24 -87 -10 -134 83 -26 52 -77 148 -114 213 -46 81 -67 148 -71 220 -5 91 -11 102 -51 102 -34 1 -50 17 -62 65 -10 36 -26 65 -37 65 -10 0 -19 13 -19 29 0 48 -36 55 -94 18 l-56 -35 37 43 c20 23 32 51 26 60 -6 10 21 67 59 126 39 59 72 122 74 139 2 39 203 21 242 -22 16 -18 16 -20 -2 -11 -13 8 -30 3 -38 -10 -10 -16 0 -20 32 -11 51 13 200 -26 200 -52 0 -9 9 -11 20 -4 11 7 21 -4 22 -24 0 -20 6 -25 11 -12 7 17 24 19 61 4 172 -65 -27 69 -214 145 -61 24 -119 51 -129 60 -10 10 -46 17 -78 17 -75 0 -62 14 27 30 38 7 74 21 81 32 7 11 27 14 46 7 18 -8 33 -4 33 9 0 27 65 29 92 2 19 -19 121 -41 192 -42 19 0 36 -19 40 -44 7 -53 110 -97 134 -57 13 21 23 19 48 -5 17 -18 44 -27 61 -20 16 6 58 -4 93 -22 81 -42 99 -27 26 22 -109 73 -152 88 -248 88 -56 0 -98 9 -98 21 0 35 -45 71 -148 116 -115 51 -120 52 -105 13 9 -22 -2 -30 -39 -30 -29 0 -45 9 -38 20 7 12 23 15 34 7 13 -8 16 -4 8 10 -20 32 -142 15 -142 -19 0 -19 -19 -26 -61 -22 -117 12 -308 -210 -348 -404 -16 -79 -46 -74 -67 12 -18 70 -74 146 -74 100 0 -14 12 -45 28 -70 58 -94 55 -229 -4 -170 -13 13 -24 15 -24 5 0 -10 -63 -20 -140 -21 -144 -2 -280 -89 -280 -179 0 -16 -9 -29 -20 -29 -11 0 -20 -17 -20 -39 0 -21 -12 -50 -26 -65 -15 -14 -28 -33 -30 -41 -2 -8 -9 -13 -15 -10 -7 3 -19 -8 -29 -25 -19 -35 -3 -144 20 -130 9 6 12 -8 6 -30 -7 -25 9 -66 42 -109 28 -37 52 -75 52 -83 0 -9 -12 1 -27 21 -14 20 -39 31 -55 25 -22 -8 -20 -11 5 -12 18 -1 38 -16 45 -33 6 -17 26 -28 44 -25 19 4 40 -13 50 -39 12 -32 9 -45 -10 -45 -14 0 -42 -18 -62 -40 -20 -23 -62 -40 -94 -40 -36 0 -53 -8 -45 -21 7 -12 26 -17 41 -11 15 6 28 3 28 -7 0 -24 -74 -47 -100 -31 -11 7 -20 -1 -20 -18 0 -17 -18 -40 -40 -52 -27 -15 -40 -15 -40 -1 0 12 -9 21 -20 21 -11 0 -20 -33 -20 -74 0 -55 -6 -68 -23 -51 -26 26 -30 194 -10 405 8 83 19 195 24 250 l8 100 -26 -70 c-14 -38 -25 -108 -25 -155 2 -83 -14 -110 -35 -60 -6 14 -8 -9 -5 -50 4 -45 -2 -75 -16 -75 -12 0 -8 -9 8 -20 23 -14 25 -27 8 -55 -14 -23 -16 -53 -5 -83 10 -26 13 -63 7 -82 -10 -32 13 -104 82 -255 17 -36 25 -74 18 -85 -7 -11 2 -26 19 -32 50 -20 81 -89 48 -110 -20 -13 -20 -17 -2 -18 14 0 25 -9 25 -20 0 -63 -198 100 -255 209 -17 33 -56 84 -86 112 -54 51 -86 135 -119 318 -9 50 -32 132 -50 181 -65 172 -9 402 148 609 42 56 90 138 108 184 18 46 65 135 105 197 40 62 76 141 80 174 39 311 512 552 756 387 91 -62 86 -62 101 0 58 229 380 336 662 218z m-900 -1079 c0 -29 -16 -42 -54 -46 -65 -8 -136 -137 -136 -246 0 -39 -9 -79 -19 -89 -11 -11 -22 -61 -25 -112 l-6 -92 -48 38 c-26 20 -60 37 -75 37 -15 0 -27 18 -27 41 0 58 54 179 80 179 12 0 20 11 17 25 -6 30 102 243 116 229 5 -5 32 12 59 39 56 57 118 55 118 -3z m259 -52 c7 12 33 22 57 22 34 -1 37 -5 16 -19 -22 -13 -14 -19 30 -24 l58 -7 1 -320 c1 -462 56 -605 269 -707 120 -57 122 -57 169 -20 26 20 56 37 67 37 10 0 30 14 44 30 22 26 20 29 -11 17 -28 -11 -33 -7 -23 20 20 53 -25 38 -50 -17 -87 -191 -292 47 -345 399 -36 239 -16 332 37 169 53 -162 209 -397 265 -398 13 0 50 -22 81 -48 61 -51 505 -221 629 -241 53 -9 93 -35 146 -97 111 -128 111 -128 111 -193 0 -83 49 -80 90 6 175 370 622 360 646 -15 19 -294 -200 -487 -491 -433 -79 15 -87 12 -133 -48 -197 -258 -709 -416 -1365 -419 -178 -1 -319 -9 -314 -17 23 -37 -200 28 -308 89 -183 104 -232 183 -256 416 -7 73 -34 170 -60 220 -57 111 -84 200 -109 352 l-20 118 125 116 125 116 140 -13 c77 -6 167 -15 200 -18 60 -6 110 18 110 53 0 10 -8 14 -17 8 -10 -6 -34 7 -53 28 -20 22 -86 49 -153 62 -65 13 -115 29 -112 36 68 122 134 366 135 502 1 166 21 222 67 189 48 -33 81 -38 63 -9 -7 11 5 20 27 20 21 0 45 15 52 34 10 28 17 29 30 8 11 -18 20 -20 30 -4z m1091 -566 c0 -21 -118 -81 -183 -93 -135 -24 -50 56 93 88 57 12 90 14 90 5z m137 -1814 c26 -21 91 -43 144 -50 106 -14 146 -47 167 -136 8 -32 41 -97 74 -145 114 -165 266 -507 238 -533 -20 -19 -23 -18 -11 2 8 15 -15 69 -56 130 -38 58 -90 147 -115 199 -25 52 -58 95 -72 95 -25 0 -34 24 -28 73 1 12 -12 28 -29 35 -18 6 -25 22 -17 35 10 16 4 20 -18 11 -22 -8 -29 -3 -21 17 6 16 1 29 -11 29 -30 0 -28 54 3 68 14 6 7 8 -15 4 -22 -5 -74 -14 -115 -21 -41 -7 -75 -21 -75 -32 0 -30 -60 -22 -95 13 -30 30 -35 30 -67 -10 -63 -77 -80 -52 -65 92 19 191 61 219 184 124z m-581 -13 c-29 -30 -86 -118 -126 -195 -41 -77 -82 -148 -90 -157 -17 -18 -51 73 -72 197 -7 44 -20 89 -28 100 -53 75 -40 85 104 87 77 0 146 6 152 12 6 6 33 11 61 11 l50 0 -51 -55z m-826 -23 l120 -16 -130 -4 c-250 -9 -489 -24 -498 -33 -5 -5 155 -9 354 -9 439 0 440 -1 476 -399 6 -61 15 -124 22 -141 6 -16 9 -68 7 -115 -2 -47 4 -85 13 -85 9 0 18 -36 19 -80 1 -44 -5 -80 -13 -80 -8 0 -10 -22 -5 -50 6 -28 0 -50 -12 -50 -12 0 -16 16 -10 35 10 28 6 27 -19 -5 -28 -36 -28 -41 2 -52 24 -8 10 -19 -46 -37 -44 -14 -89 -34 -99 -43 -10 -10 -35 -18 -56 -18 -20 0 -42 -15 -49 -32 -32 -85 -127 -152 -196 -139 -37 7 -72 5 -77 -5 -6 -9 -68 -10 -137 -2 -75 9 -135 7 -149 -5 -16 -13 -26 -8 -30 16 -7 32 -9 32 -40 1 -28 -28 -35 -29 -44 -3 -8 18 1 30 23 31 22 1 25 5 8 11 -14 6 -39 0 -55 -14 -32 -27 -40 -68 -9 -49 11 7 20 2 20 -11 0 -13 -14 -18 -32 -11 -17 7 -40 12 -51 12 -11 0 -14 8 -8 19 6 10 -13 6 -44 -9 -36 -18 -137 -29 -295 -31 -260 -4 -282 -8 -245 -47 17 -18 44 -21 94 -9 117 27 245 1 220 -45 -11 -21 -34 -38 -51 -38 -17 0 -26 -8 -20 -17 11 -18 -247 -46 -273 -30 -8 5 -15 36 -15 68 0 52 -16 68 -63 62 -23 -3 -269 943 -329 1267 -20 109 94 146 492 160 182 6 429 20 550 31 430 38 408 38 680 1z m1179 -33 c12 -67 -2 -239 -24 -276 -5 -9 -47 19 -92 63 -46 44 -117 98 -158 120 -57 29 -69 44 -50 60 33 26 118 37 149 18 29 -19 106 26 106 61 0 58 56 20 69 -46z m-761 -58 c27 -43 27 -50 -8 -81 -37 -33 -39 -32 -51 23 -7 31 -17 73 -22 92 -13 49 42 25 81 -34z m31 -166 c21 -19 52 -47 70 -61 36 -30 41 -128 9 -187 -43 -81 -1 -56 60 36 34 51 62 87 62 79 0 -8 39 27 87 78 90 95 165 109 223 42 91 -104 206 -141 224 -72 6 22 18 40 26 40 24 0 0 -75 -32 -102 -16 -13 -28 -60 -28 -108 0 -52 -12 -95 -30 -110 -26 -22 -29 -20 -18 9 12 31 9 32 -28 9 -23 -14 -37 -33 -32 -41 13 -21 -86 -83 -110 -69 -10 7 -33 -2 -50 -19 -18 -18 -32 -22 -32 -10 0 11 -17 21 -38 21 -56 0 -90 49 -53 79 16 13 38 19 48 13 22 -14 46 38 27 58 -8 7 -14 23 -14 35 0 12 -11 25 -23 29 -15 5 -20 -7 -13 -33 10 -38 -9 -51 -59 -43 -8 1 -15 -6 -15 -16 0 -10 -5 -33 -12 -50 -7 -18 9 -49 39 -78 64 -59 81 -144 40 -205 -17 -26 -24 -58 -16 -70 18 -30 -26 -58 -91 -59 -46 -1 -47 -3 -15 -28 34 -25 33 -29 -14 -59 -59 -39 -50 -68 -170 494 -100 466 -100 469 -22 398z m1033 -25 c57 0 72 -9 89 -55 10 -30 28 -71 39 -90 31 -54 24 -95 -18 -95 -22 0 -43 19 -50 45 -12 43 -14 43 -40 9 -21 -27 -31 -30 -38 -10 -6 14 -12 -7 -12 -47 -1 -41 -13 -77 -27 -82 -14 -5 15 -22 64 -38 157 -52 126 -119 -55 -120 -155 0 -159 2 -174 129 -20 155 109 487 146 377 4 -13 38 -23 76 -23z m230 -105 c46 -43 98 -190 98 -277 0 -46 -171 -45 -200 2 -22 36 24 121 53 98 40 -34 51 17 16 71 -19 28 -28 51 -20 51 7 0 6 11 -2 25 -49 78 -15 96 55 30z m-289 -446 c12 -17 29 -70 36 -118 7 -48 26 -92 42 -99 38 -14 39 -179 1 -210 -21 -18 -35 -16 -58 7 -41 41 -67 39 -126 -7 -27 -21 -87 -45 -134 -52 -46 -8 -104 -26 -128 -42 -55 -34 -86 -36 -86 -4 0 40 102 174 142 187 21 6 38 21 38 32 0 12 -13 16 -30 10 -16 -7 -30 -3 -30 7 0 11 -31 4 -68 -15 -38 -19 -68 -39 -68 -45 4 -69 -13 -84 -119 -110 -14 -4 -27 13 -29 37 -12 145 -6 163 84 250 l90 87 -75 -44 c-42 -24 -84 -59 -95 -77 -10 -18 -19 -23 -19 -12 -3 86 170 207 369 256 73 19 239 -5 263 -38z m135 19 c18 -7 32 -30 32 -51 0 -22 -9 -34 -20 -27 -11 7 -26 -3 -34 -22 -12 -32 -14 -32 -28 3 -36 91 -19 123 50 97z m274 -89 c209 -32 359 -180 357 -353 -2 -176 -354 -290 -509 -166 -44 36 -77 75 -73 87 30 90 43 184 44 318 1 86 9 151 18 146 8 -5 82 -20 163 -32z m-1154 -362 c45 -13 96 -36 114 -50 17 -15 53 -27 80 -27 27 0 60 -18 75 -42 18 -29 39 -38 69 -31 51 12 146 -35 359 -177 82 -55 166 -109 185 -121 86 -50 -12 -289 -118 -289 -27 0 -52 -9 -55 -20 -8 -24 -197 68 -258 125 -22 21 -59 39 -83 41 -24 2 -63 22 -86 46 -24 24 -76 55 -117 69 -40 15 -73 35 -73 44 0 110 -273 290 -322 213 -13 -21 0 -35 47 -55 36 -15 70 -35 75 -44 6 -9 35 -26 65 -37 30 -12 55 -30 55 -42 0 -27 -11 -25 -81 11 -32 16 -59 22 -59 13 0 -10 22 -29 49 -43 66 -36 73 -62 40 -154 -15 -42 -28 -105 -28 -139 -1 -36 -22 -86 -50 -119 -36 -42 -44 -65 -30 -91 25 -46 2 -103 -35 -89 -16 6 -39 11 -50 11 -12 0 -9 14 6 33 25 29 23 31 -20 18 -30 -10 -43 -8 -34 5 7 12 -4 16 -28 10 -23 -6 -44 1 -50 17 -16 42 -250 25 -250 -19 0 -8 -41 -14 -92 -14 l-91 0 9 70 c5 39 19 106 30 150 11 44 31 138 44 209 73 401 366 615 708 518z m-688 -299 c0 -12 -18 -26 -40 -32 -22 -6 -40 -20 -40 -31 0 -11 -22 -14 -50 -7 -41 10 -50 5 -50 -28 0 -42 -67 -58 -90 -20 -7 11 -23 20 -35 20 -31 0 57 -80 89 -81 32 0 98 -136 73 -151 -10 -6 -13 -19 -7 -28 6 -10 -17 -49 -50 -87 -56 -63 -58 -72 -29 -101 34 -34 30 -39 -19 -20 -18 7 -27 20 -21 30 6 10 2 18 -9 18 -11 0 -24 -8 -30 -17 -6 -9 -31 -14 -56 -11 -25 2 -61 5 -79 6 -19 1 -61 25 -93 52 -102 86 -182 46 -90 -45 58 -59 58 -85 0 -85 -26 0 -67 -24 -93 -53 l-46 -53 58 14 c292 67 457 66 458 -3 1 -30 5 -80 10 -112 9 -55 8 -56 -111 -65 -145 -10 -327 -60 -375 -103 -32 -28 -38 -28 -74 4 -46 42 -106 206 -81 221 21 13 9 133 -29 300 -41 174 -49 268 -34 370 l13 90 250 11 c479 21 680 20 680 -3z m1711 -77 c-7 -10 -2 -62 10 -115 66 -285 -67 -524 -321 -576 -38 -8 -79 -21 -90 -30 -68 -51 -306 -33 -437 34 l-57 29 49 54 c28 29 46 64 41 78 -5 14 1 25 14 25 14 0 19 14 12 33 -7 18 2 55 19 82 18 27 29 69 24 94 -12 63 29 54 215 -49 88 -49 178 -86 200 -82 22 4 56 8 75 10 116 8 229 321 130 358 -14 5 7 24 45 41 84 38 85 38 71 14z m-936 -193 c26 -26 28 -43 11 -89 -16 -42 -16 -59 1 -65 15 -5 9 -25 -17 -56 l-40 -48 51 45 c29 25 58 45 65 45 28 0 -3 -174 -44 -247 -47 -84 -52 -101 -20 -82 16 10 16 3 1 -25 -12 -22 -17 -57 -12 -78 13 -60 -74 -218 -121 -218 -34 0 -42 -18 -54 -130 -9 -80 -26 -138 -45 -152 -19 -14 -31 -54 -31 -103 0 -123 2 -123 -581 -123 -683 0 -672 -4 -598 262 16 58 14 90 -10 147 -52 123 -42 190 24 177 30 -6 107 -2 170 8 144 23 144 17 -5 -49 -141 -63 -147 -81 -11 -34 99 33 279 27 317 -11 18 -18 -30 -90 -49 -74 -30 26 -157 26 -157 1 0 -24 -7 -25 -40 -5 -30 19 -45 19 -62 2 -18 -18 -12 -21 24 -12 47 11 47 10 8 -21 -22 -17 -62 -32 -90 -33 -48 -1 -48 -3 -12 -30 25 -19 66 -25 120 -18 119 14 141 -7 110 -109 -23 -78 -44 -94 -113 -84 -14 1 -41 -6 -60 -17 -26 -16 -6 -20 78 -16 108 4 115 7 126 62 30 152 290 159 476 13 30 -24 64 -38 75 -31 28 17 25 50 -5 50 -68 1 -82 35 -38 91 24 30 43 61 43 69 0 22 -129 80 -173 79 -21 -1 -5 -14 38 -32 41 -17 75 -39 75 -49 0 -27 -38 -22 -101 16 -45 26 -66 29 -103 11 l-46 -22 45 -2 c25 0 45 -9 45 -20 0 -17 -61 -5 -145 29 -24 10 -35 5 -35 -17 0 -34 -36 -64 -55 -45 -15 15 74 112 103 112 12 0 23 39 24 87 3 150 -2 147 221 122 293 -34 362 -72 257 -141 -50 -33 -170 -10 -170 32 0 25 -117 35 -142 11 -18 -15 -20 -14 -9 6 11 19 3 25 -30 20 -63 -10 -75 -57 -14 -57 76 0 250 -58 261 -87 15 -38 184 -14 185 27 3 87 33 135 76 125 38 -9 40 -7 13 20 -71 71 -457 145 -636 121 l-84 -11 0 88 c0 49 11 100 24 113 60 60 503 12 702 -76 118 -52 169 -42 75 16 -82 51 -117 198 -41 174 23 -7 40 -4 40 9 0 11 -8 21 -17 21 -9 0 -1 64 19 141 54 220 56 223 113 167z"/> <path d="M2992 6772 c-99 -37 -246 -181 -263 -258 -7 -33 -19 -51 -26 -41 -11 15 -225 20 -263 7 -23 -9 96 -36 163 -38 60 -2 72 -8 64 -38 -5 -20 10 -58 33 -85 l43 -49 -12 54 c-9 45 4 71 79 149 108 113 114 130 20 58 -79 -60 -87 -49 -31 42 51 84 200 138 431 158 131 11 168 19 135 31 -93 34 -293 39 -373 10z"/> <path d="M2146 6500 c-103 -59 -246 -219 -246 -275 0 -33 78 29 281 220 134 127 123 145 -35 55z"/> <path d="M2314 6503 c-30 -20 -85 -67 -122 -105 -36 -37 -112 -108 -169 -157 -57 -49 -103 -98 -103 -109 0 -11 43 20 95 70 52 50 134 115 182 146 48 30 81 60 75 67 -18 18 111 90 176 98 89 11 89 27 0 27 -43 0 -103 -17 -134 -37z"/> <path d="M3170 6508 c-59 -26 -59 -26 -10 -30 40 -3 36 -6 -20 -16 l-70 -14 66 -11 c51 -8 71 -2 86 27 31 58 14 72 -52 44z"/> <path d="M3937 6370 c-6 -6 -48 -12 -94 -15 -86 -5 -116 -40 -44 -51 23 -4 41 2 41 13 0 22 84 5 102 -21 6 -10 23 -4 37 13 21 25 21 31 -2 31 -21 1 -21 5 3 20 26 17 26 19 -2 20 -17 0 -36 -5 -41 -10z"/> <path d="M2400 6230 c0 -16 11 -30 25 -30 18 -1 18 -5 -2 -18 -15 -9 -44 -13 -65 -7 -21 5 -50 0 -65 -12 -15 -13 -32 -17 -38 -11 -17 17 -80 -87 -67 -109 17 -27 92 -4 92 27 0 14 14 31 32 38 43 17 52 15 39 -6 -10 -16 170 -142 203 -142 7 0 31 -16 52 -35 39 -34 39 -34 14 15 -40 76 -117 140 -169 140 -37 0 -45 8 -37 40 12 43 46 55 46 16 0 -18 6 -18 23 -1 17 17 15 36 -10 74 -38 57 -73 67 -73 21z"/> <path d="M3789 6011 c-36 -28 -37 -30 -3 -30 20 -1 31 -9 25 -19 -6 -9 2 -28 17 -41 22 -17 31 -17 38 3 9 21 11 21 12 0 1 -15 -8 -45 -20 -68 -13 -25 -14 -36 -2 -28 11 7 25 1 31 -13 6 -15 10 -11 11 10 1 19 11 35 22 35 11 0 20 18 20 40 0 22 -10 40 -21 40 -12 0 -15 10 -7 23 10 16 1 20 -29 12 -50 -13 -81 22 -41 47 16 10 18 18 7 18 -12 0 -39 -13 -60 -29z"/> <path d="M2260 5952 c28 -37 28 -37 -17 -13 -26 14 -42 16 -35 5 7 -12 -19 -31 -58 -44 -55 -18 -70 -34 -70 -72 0 -27 -27 -102 -59 -166 -102 -202 -226 -882 -161 -882 11 0 20 29 20 65 1 36 10 101 21 145 11 44 23 101 27 126 4 25 14 52 23 60 8 8 10 -2 3 -21 -9 -24 -3 -35 18 -35 18 0 28 14 25 35 -3 19 1 46 10 60 9 14 6 25 -6 25 -11 0 -21 -11 -21 -24 0 -16 -6 -18 -21 -3 -31 31 45 331 98 388 43 47 60 112 23 89 -34 -21 -22 10 32 81 53 69 88 88 88 48 0 -12 -8 -16 -19 -10 -10 6 -24 3 -31 -9 -21 -33 46 -23 90 14 22 19 40 47 40 61 0 14 14 31 30 38 17 6 30 20 30 30 0 11 -9 14 -21 6 -11 -7 -36 0 -55 14 -31 25 -32 24 -4 -11z"/> <path d="M3110 5940 c7 -11 25 -20 41 -20 48 0 33 -40 -16 -43 -25 -1 -69 -4 -99 -5 -30 -2 -62 -12 -70 -21 -9 -10 0 -12 19 -5 19 7 35 5 35 -4 0 -9 20 -26 45 -38 l45 -22 -43 -13 c-65 -19 -75 -104 -12 -97 27 2 44 0 38 -6 -25 -25 37 -62 65 -39 24 19 25 16 5 -21 -29 -54 -32 -110 -3 -66 12 18 20 21 20 6 0 -13 -14 -32 -31 -42 -34 -18 -23 -113 16 -137 12 -8 15 -4 7 10 -8 13 -4 23 8 23 12 0 17 9 10 20 -7 11 2 20 19 20 29 0 34 10 39 78 3 34 52 55 52 22 0 -12 8 -17 18 -11 10 6 22 4 27 -4 5 -8 6 -4 3 8 -3 13 8 29 24 35 17 7 25 3 18 -8 -7 -11 1 -20 18 -20 16 0 35 9 42 20 7 11 30 20 51 20 60 0 48 66 -21 117 -33 24 -60 57 -60 74 0 44 75 35 101 -13 16 -31 35 -38 69 -30 26 7 54 2 61 -10 7 -12 30 -17 51 -12 26 7 52 -9 82 -53 25 -35 62 -81 82 -103 58 -61 192 -262 214 -319 10 -28 28 -51 40 -51 28 0 26 7 -22 100 -51 97 -51 96 63 104 75 5 89 0 86 -29 -1 -19 9 -35 24 -35 15 0 33 -10 41 -23 8 -14 5 -18 -7 -10 -31 19 -106 -94 -100 -150 3 -26 38 -73 80 -106 41 -33 75 -67 75 -77 0 -9 14 -3 30 13 17 17 30 45 30 63 0 18 10 51 22 74 16 30 16 37 0 27 -12 -7 -22 0 -22 18 0 17 15 31 32 31 27 0 28 5 8 30 -13 16 -32 25 -42 19 -10 -6 -12 3 -5 21 20 53 -51 203 -121 257 l-65 50 -59 -48 c-45 -37 -50 -48 -23 -48 19 -1 35 10 35 22 0 13 5 18 12 12 23 -24 -42 -86 -87 -83 -25 1 -45 -6 -45 -16 0 -10 -9 -13 -20 -6 -12 7 -16 20 -11 29 6 9 -1 26 -16 39 -15 12 -43 58 -63 102 -20 44 -48 80 -63 80 -15 0 -27 20 -27 45 0 26 -7 36 -15 23 -16 -25 -105 -2 -105 26 0 31 -98 129 -117 118 -11 -7 -42 16 -70 52 -43 54 -54 60 -81 37 -24 -19 -32 -20 -32 -2 0 28 -84 20 -94 -9 -3 -11 19 -37 49 -56 47 -31 48 -34 10 -24 -37 10 -43 6 -33 -24 11 -34 10 -34 -18 -1 -34 42 -74 46 -74 7 0 -15 -13 -38 -30 -52 -16 -14 -30 -42 -30 -62 0 -49 -25 -48 -69 1 -37 41 2 120 47 92 31 -19 64 43 51 97 -11 43 -25 52 -82 52 -41 0 -64 -8 -57 -20z m231 -315 c-9 -34 -27 -53 -45 -50 -31 6 -92 -51 -79 -73 3 -6 -4 -13 -16 -15 -12 -2 -15 0 -6 5 9 4 14 39 12 77 -2 51 4 65 25 57 15 -5 28 -1 28 10 0 12 20 25 45 30 25 5 46 10 48 11 2 2 -3 -22 -12 -52z m1027 -403 c58 -64 -6 -147 -75 -97 -29 22 -30 33 -8 80 30 65 38 67 83 17z"/> <path d="M4772 5910 c8 -34 3 -53 -18 -61 -32 -12 -24 -89 10 -89 10 0 12 10 4 23 -10 16 -1 20 29 12 24 -6 43 -3 43 7 0 10 14 18 30 18 39 0 37 20 -6 71 -56 68 -107 78 -92 19z"/> <path d="M1975 5871 c12 -65 -75 -113 -127 -69 -16 13 -34 9 -56 -13 -40 -40 -41 -69 -2 -69 16 0 44 -22 62 -50 39 -60 48 -55 128 64 45 65 56 96 39 107 -13 8 -19 24 -12 35 7 11 1 24 -14 30 -19 7 -24 -3 -18 -35z"/> <path d="M4540 5780 c22 -22 49 -40 60 -40 11 0 20 -13 20 -30 0 -16 9 -30 19 -30 11 0 15 13 9 28 -6 15 -1 34 11 41 36 22 24 46 -29 56 -28 5 -50 0 -50 -12 0 -13 -9 -12 -24 3 -13 13 -31 24 -40 24 -9 0 2 -18 24 -40z"/> <path d="M3940 5691 c0 -31 49 -107 81 -127 49 -31 49 -11 -1 71 -33 55 -80 87 -80 56z"/> <path d="M4736 5648 c19 -26 41 -47 49 -47 28 -2 15 -57 -16 -69 -18 -6 -25 -22 -17 -35 9 -14 5 -18 -9 -9 -23 15 -27 4 -27 -68 0 -98 5 -122 25 -109 12 7 16 37 9 69 -8 35 -3 62 12 71 17 11 19 6 8 -13 -12 -22 -10 -23 10 -5 13 13 40 18 57 12 30 -11 30 -9 3 25 -23 27 -24 39 -5 45 18 6 16 24 -9 72 -19 34 -33 69 -31 76 2 7 -18 17 -44 22 -47 9 -47 8 -15 -37z"/> <path d="M1575 5585 c-92 -101 -163 -412 -127 -556 21 -83 31 -51 44 143 9 137 25 207 70 306 62 135 65 165 13 107z"/> <path d="M4660 5440 c0 -22 -13 -40 -29 -40 -18 0 -25 -12 -18 -30 6 -16 31 -29 54 -28 24 0 33 5 22 10 -12 5 -18 36 -13 68 5 33 3 60 -4 60 -6 0 -12 -18 -12 -40z"/> <path d="M1745 5380 c-28 -45 -33 -120 -9 -120 14 0 84 125 84 151 0 26 -54 4 -75 -31z"/> <path d="M1594 5090 c-9 -77 -21 -173 -26 -213 -6 -40 -2 -78 9 -85 28 -17 47 127 39 298 l-6 140 -16 -140z"/> <path d="M1613 4609 c17 -50 36 -87 41 -81 13 13 -32 149 -54 162 -10 6 -4 -30 13 -81z"/> <path d="M2360 4563 c0 -54 6 -58 95 -69 52 -6 112 -18 133 -26 66 -25 16 30 -84 94 -116 73 -144 73 -144 1z"/> <path d="M3507 4575 c-148 -35 -417 -277 -280 -251 51 10 55 7 44 -36 -9 -39 -4 -48 29 -48 42 0 51 -20 23 -51 -10 -11 -9 -49 1 -86 l18 -67 111 14 c150 18 332 75 273 85 -41 7 -61 85 -22 85 9 0 16 10 16 21 0 12 -16 17 -36 10 -43 -13 -122 38 -96 62 10 10 22 5 27 -9 7 -19 18 -14 39 16 17 23 27 45 23 47 -114 77 -198 82 -324 19 -64 -33 -80 -27 -61 22 31 81 205 119 270 60 26 -23 88 -35 221 -40 101 -5 186 -11 188 -13 39 -45 -97 -255 -165 -255 -14 0 -26 -12 -26 -28 0 -33 49 -77 67 -58 7 7 13 2 13 -11 0 -13 9 -23 19 -23 11 0 15 14 8 30 -6 17 -1 30 11 30 12 0 22 -10 22 -21 0 -12 8 -16 19 -10 10 6 14 35 9 64 -6 34 3 61 26 81 20 16 25 23 11 16 -35 -17 -31 20 5 50 176 146 -185 367 -483 295z m113 -395 c0 -6 -27 -22 -61 -37 -70 -31 -159 -16 -159 27 0 34 42 40 72 10 14 -14 36 -8 68 20 43 37 78 29 80 -20z"/> <path d="M2243 4405 c-68 -37 -141 -133 -118 -156 7 -7 72 2 146 20 147 37 173 31 119 -29 -36 -39 -36 -42 2 -70 37 -30 37 -30 -2 -61 -31 -24 -34 -34 -13 -47 14 -9 24 -20 21 -24 -12 -17 33 -74 62 -80 58 -12 242 24 249 48 32 102 31 134 -4 135 -33 0 -33 2 2 28 29 23 32 36 14 69 -15 28 -15 42 -2 42 54 0 10 39 -94 85 -162 72 -297 86 -382 40z m340 -45 c11 0 14 -9 7 -20 -15 -25 -130 -27 -130 -2 0 24 43 41 77 30 14 -4 35 -8 46 -8z m92 -275 c14 -42 -147 -76 -185 -38 -30 30 -28 32 25 21 39 -8 66 -1 84 21 29 35 64 33 76 -4z"/> <path d="M4652 4319 c-71 -62 -139 -217 -119 -271 15 -38 77 -28 77 12 0 19 19 30 50 30 28 0 48 -10 46 -23 -3 -12 12 -27 33 -33 30 -7 40 5 50 60 8 38 18 81 24 97 6 15 -12 50 -40 78 l-51 51 51 0 c44 0 48 5 27 30 -37 44 -71 37 -148 -31z"/> <path d="M2900 4038 c0 -12 -13 -17 -30 -11 -36 14 -66 -79 -35 -110 30 -30 151 0 138 34 -6 14 0 31 13 36 16 7 11 21 -15 42 -45 36 -71 40 -71 9z"/> <path d="M3859 3978 l-44 -61 47 6 c27 4 49 18 51 32 7 74 7 75 25 47 18 -28 62 -15 62 19 0 46 -99 16 -141 -43z"/> <path d="M3813 4005 c-8 -13 -28 -18 -45 -12 -17 7 -48 -7 -73 -34 l-43 -46 44 12 c24 6 49 3 55 -6 14 -24 93 58 84 86 -6 17 -11 17 -22 0z"/> <path d="M2312 3808 c-20 -53 -14 -56 31 -16 43 38 43 38 19 -7 -15 -29 -16 -45 -3 -45 12 0 21 11 21 25 1 18 6 17 18 -3 16 -24 23 -24 50 3 28 29 26 33 -31 53 -82 29 -90 28 -105 -10z"/> <path d="M3140 3728 c-39 -15 -103 -22 -143 -16 -84 13 -124 -24 -48 -44 97 -24 311 26 311 73 0 24 -32 21 -120 -13z"/> <path d="M3011 3622 c-46 -75 44 -101 109 -32 l47 50 -72 0 c-40 0 -78 -8 -84 -18z"/> <path d="M1860 3180 l-150 -13 165 -3 c99 -3 165 4 165 16 0 11 -7 18 -15 16 -8 -2 -82 -9 -165 -16z"/> <path d="M1071 2422 c-9 -15 -8 -32 1 -39 10 -7 21 -40 25 -73 7 -72 0 -64 73 -80 l60 -13 -50 40 c-50 41 -50 41 -10 73 22 18 29 27 15 20 -14 -7 -25 -2 -25 10 0 12 -11 16 -23 8 -16 -10 -20 -4 -11 20 8 19 5 29 -5 23 -9 -6 -21 0 -26 13 -6 18 -12 17 -24 -2z"/> <path d="M3511 2190 c-43 -26 -90 -69 -104 -94 -47 -84 -28 -84 45 0 39 46 83 84 97 84 14 0 37 14 51 30 36 43 2 36 -89 -20z"/> <path d="M2953 1470 c-17 -16 -42 -25 -57 -19 -15 5 -54 -19 -87 -55 -46 -51 -48 -57 -9 -24 84 70 109 80 92 36 -11 -28 2 -22 47 21 33 32 61 61 61 65 0 14 -19 4 -47 -24z"/> <path d="M2862 1315 c-38 -36 -45 -38 -35 -10 16 47 -11 44 -42 -4 -21 -34 -20 -38 9 -27 22 9 28 5 18 -11 -24 -38 -1 -27 70 37 38 33 59 60 47 60 -11 0 -41 -20 -67 -45z"/> <path d="M2950 1256 c-68 -39 -89 -80 -58 -111 15 -15 36 -22 46 -16 10 6 35 -4 54 -24 31 -30 34 -30 23 -2 -6 17 -1 43 12 57 18 20 14 20 -22 2 -29 -15 -45 -16 -45 -3 0 12 9 21 20 21 11 0 18 23 15 50 -2 28 -4 50 -4 49 -1 0 -19 -11 -41 -23z"/> </g> </svg> 